<mxfile host="Electron" agent="Mozilla/5.0 (Macintosh; Intel Mac OS X 10_15_7) AppleWebKit/537.36 (KHTML, like Gecko) draw.io/23.1.5 Chrome/120.0.6099.109 Electron/28.1.0 Safari/537.36" modified="2024-10-24T13:35:13.893Z" version="23.1.5" etag="vjJT2b6TumoVXZ_sLYge" type="device">
  <diagram name="Page-1" id="8378b5f6-a2b2-b727-a746-972ab9d02e00">
    <mxGraphModel dx="2707.5" dy="1967.5" grid="1" gridSize="10" guides="1" tooltips="1" connect="0" arrows="1" fold="1" page="1" pageScale="1.5" pageWidth="1169" pageHeight="827" background="none" math="0" shadow="0">
      <root>
        <mxCell id="0" />
        <mxCell id="1" parent="0" />
        <mxCell id="233" value="" style="strokeColor=#DEEDFF;fillColor=#D4E1FF" parent="1" vertex="1">
          <mxGeometry x="1400" y="40" width="20" height="660" as="geometry" />
        </mxCell>
        <mxCell id="234" value="" style="strokeColor=#DEEDFF;fillColor=#D4E1FF" parent="1" vertex="1">
          <mxGeometry x="1420" y="40" width="20" height="660" as="geometry" />
        </mxCell>
        <mxCell id="228" value="" style="strokeColor=#DEEDFF" parent="1" vertex="1">
          <mxGeometry x="1300" y="40" width="20" height="660" as="geometry" />
        </mxCell>
        <mxCell id="229" value="" style="strokeColor=#DEEDFF" parent="1" vertex="1">
          <mxGeometry x="1320" y="40" width="20" height="660" as="geometry" />
        </mxCell>
        <mxCell id="230" value="" style="strokeColor=#DEEDFF" parent="1" vertex="1">
          <mxGeometry x="1340" y="40" width="20" height="660" as="geometry" />
        </mxCell>
        <mxCell id="231" value="" style="strokeColor=#DEEDFF" parent="1" vertex="1">
          <mxGeometry x="1360" y="40" width="20" height="660" as="geometry" />
        </mxCell>
        <mxCell id="232" value="" style="strokeColor=#DEEDFF" parent="1" vertex="1">
          <mxGeometry x="1380" y="40" width="20" height="660" as="geometry" />
        </mxCell>
        <mxCell id="216" value="" style="strokeColor=#DEEDFF" parent="1" vertex="1">
          <mxGeometry x="1060" y="40" width="20" height="660" as="geometry" />
        </mxCell>
        <mxCell id="217" value="" style="strokeColor=#DEEDFF" parent="1" vertex="1">
          <mxGeometry x="1080" y="40" width="20" height="660" as="geometry" />
        </mxCell>
        <mxCell id="218" value="" style="strokeColor=#DEEDFF" parent="1" vertex="1">
          <mxGeometry x="1100" y="40" width="20" height="660" as="geometry" />
        </mxCell>
        <mxCell id="219" value="" style="strokeColor=#DEEDFF;fillColor=#D4E1FF" parent="1" vertex="1">
          <mxGeometry x="1120" y="40" width="20" height="660" as="geometry" />
        </mxCell>
        <mxCell id="220" value="" style="strokeColor=#DEEDFF;fillColor=#D4E1FF" parent="1" vertex="1">
          <mxGeometry x="1140" y="40" width="20" height="660" as="geometry" />
        </mxCell>
        <mxCell id="221" value="" style="strokeColor=#DEEDFF" parent="1" vertex="1">
          <mxGeometry x="1160" y="40" width="20" height="660" as="geometry" />
        </mxCell>
        <mxCell id="222" value="" style="strokeColor=#DEEDFF" parent="1" vertex="1">
          <mxGeometry x="1180" y="40" width="20" height="660" as="geometry" />
        </mxCell>
        <mxCell id="223" value="" style="strokeColor=#DEEDFF" parent="1" vertex="1">
          <mxGeometry x="1200" y="40" width="20" height="660" as="geometry" />
        </mxCell>
        <mxCell id="224" value="" style="strokeColor=#DEEDFF" parent="1" vertex="1">
          <mxGeometry x="1220" y="40" width="20" height="660" as="geometry" />
        </mxCell>
        <mxCell id="225" value="" style="strokeColor=#DEEDFF" parent="1" vertex="1">
          <mxGeometry x="1240" y="40" width="20" height="660" as="geometry" />
        </mxCell>
        <mxCell id="226" value="" style="strokeColor=#DEEDFF;fillColor=#D4E1FF" parent="1" vertex="1">
          <mxGeometry x="1260" y="40" width="20" height="660" as="geometry" />
        </mxCell>
        <mxCell id="227" value="" style="strokeColor=#DEEDFF;fillColor=#D4E1FF" parent="1" vertex="1">
          <mxGeometry x="1280" y="40" width="20" height="660" as="geometry" />
        </mxCell>
        <mxCell id="211" value="" style="strokeColor=#DEEDFF" parent="1" vertex="1">
          <mxGeometry x="960" y="40" width="20" height="660" as="geometry" />
        </mxCell>
        <mxCell id="212" value="" style="strokeColor=#DEEDFF;fillColor=#D4E1FF" parent="1" vertex="1">
          <mxGeometry x="980" y="40" width="20" height="660" as="geometry" />
        </mxCell>
        <mxCell id="213" value="" style="strokeColor=#DEEDFF;fillColor=#D4E1FF" parent="1" vertex="1">
          <mxGeometry x="1000" y="40" width="20" height="660" as="geometry" />
        </mxCell>
        <mxCell id="214" value="" style="strokeColor=#DEEDFF" parent="1" vertex="1">
          <mxGeometry x="1020" y="40" width="20" height="660" as="geometry" />
        </mxCell>
        <mxCell id="215" value="" style="strokeColor=#DEEDFF" parent="1" vertex="1">
          <mxGeometry x="1040" y="40" width="20" height="660" as="geometry" />
        </mxCell>
        <mxCell id="207" value="" style="strokeColor=#DEEDFF" parent="1" vertex="1">
          <mxGeometry x="880" y="40" width="20" height="660" as="geometry" />
        </mxCell>
        <mxCell id="208" value="" style="strokeColor=#DEEDFF" parent="1" vertex="1">
          <mxGeometry x="900" y="40" width="20" height="660" as="geometry" />
        </mxCell>
        <mxCell id="209" value="" style="strokeColor=#DEEDFF" parent="1" vertex="1">
          <mxGeometry x="920" y="40" width="20" height="660" as="geometry" />
        </mxCell>
        <mxCell id="210" value="" style="strokeColor=#DEEDFF" parent="1" vertex="1">
          <mxGeometry x="940" y="40" width="20" height="660" as="geometry" />
        </mxCell>
        <mxCell id="200" value="" style="strokeColor=#DEEDFF" parent="1" vertex="1">
          <mxGeometry x="740" y="40" width="20" height="660" as="geometry" />
        </mxCell>
        <mxCell id="201" value="" style="strokeColor=#DEEDFF" parent="1" vertex="1">
          <mxGeometry x="760" y="40" width="20" height="660" as="geometry" />
        </mxCell>
        <mxCell id="202" value="" style="strokeColor=#DEEDFF" parent="1" vertex="1">
          <mxGeometry x="780" y="40" width="20" height="660" as="geometry" />
        </mxCell>
        <mxCell id="203" value="" style="strokeColor=#DEEDFF" parent="1" vertex="1">
          <mxGeometry x="800" y="40" width="20" height="660" as="geometry" />
        </mxCell>
        <mxCell id="204" value="" style="strokeColor=#DEEDFF" parent="1" vertex="1">
          <mxGeometry x="820" y="40" width="20" height="660" as="geometry" />
        </mxCell>
        <mxCell id="205" value="" style="strokeColor=#DEEDFF;fillColor=#D4E1FF" parent="1" vertex="1">
          <mxGeometry x="840" y="40" width="20" height="660" as="geometry" />
        </mxCell>
        <mxCell id="206" value="" style="strokeColor=#DEEDFF;fillColor=#D4E1FF" parent="1" vertex="1">
          <mxGeometry x="860" y="40" width="20" height="660" as="geometry" />
        </mxCell>
        <mxCell id="199" value="" style="strokeColor=#DEEDFF;fillColor=#D4E1FF" parent="1" vertex="1">
          <mxGeometry x="720" y="40" width="20" height="660" as="geometry" />
        </mxCell>
        <mxCell id="197" value="" style="strokeColor=#DEEDFF" parent="1" vertex="1">
          <mxGeometry x="680" y="40" width="20" height="660" as="geometry" />
        </mxCell>
        <mxCell id="198" value="" style="strokeColor=#DEEDFF;fillColor=#D4E1FF" parent="1" vertex="1">
          <mxGeometry x="700" y="40" width="20" height="660" as="geometry" />
        </mxCell>
        <mxCell id="194" value="" style="strokeColor=#DEEDFF" parent="1" vertex="1">
          <mxGeometry x="620" y="40" width="20" height="660" as="geometry" />
        </mxCell>
        <mxCell id="195" value="" style="strokeColor=#DEEDFF" parent="1" vertex="1">
          <mxGeometry x="640" y="40" width="20" height="660" as="geometry" />
        </mxCell>
        <mxCell id="196" value="" style="strokeColor=#DEEDFF" parent="1" vertex="1">
          <mxGeometry x="660" y="40" width="20" height="660" as="geometry" />
        </mxCell>
        <mxCell id="68" value="" style="strokeColor=#DEEDFF" parent="1" vertex="1">
          <mxGeometry x="600" y="40" width="20" height="660" as="geometry" />
        </mxCell>
        <mxCell id="63" value="1" style="strokeColor=#DEEDFF;fillColor=#ADC3D9;fontColor=#000000;" parent="1" vertex="1">
          <mxGeometry y="40" width="40" height="20" as="geometry" />
        </mxCell>
        <mxCell id="64" value="Project preparation" style="align=left;strokeColor=#DEEDFF;fillColor=#ADC3D9" parent="1" vertex="1">
          <mxGeometry x="40" y="40" width="320" height="20" as="geometry" />
        </mxCell>
        <mxCell id="65" value="35 days" style="strokeColor=#DEEDFF;fillColor=#ADC3D9" parent="1" vertex="1">
          <mxGeometry x="360.00000000000176" y="40" width="80.00000000000028" height="20" as="geometry" />
        </mxCell>
        <mxCell id="66" value="24.09.23" style="strokeColor=#DEEDFF;fillColor=#ADC3D9" parent="1" vertex="1">
          <mxGeometry x="440.00000000000205" y="40" width="80.00000000000028" height="20" as="geometry" />
        </mxCell>
        <mxCell id="67" value="24.10.28" style="strokeColor=#DEEDFF;fillColor=#ADC3D9" parent="1" vertex="1">
          <mxGeometry x="520.0000000000016" y="40.00000000000023" width="80.00000000000028" height="20" as="geometry" />
        </mxCell>
        <mxCell id="69" value="2" style="strokeColor=#DEEDFF;fillColor=#CCE5FF" parent="1" vertex="1">
          <mxGeometry x="0.5000000000002558" y="159.9999999999999" width="40" height="20" as="geometry" />
        </mxCell>
        <mxCell id="70" value="paper collection and project understanding" style="align=left;strokeColor=#DEEDFF;fillColor=#CCE5FF" parent="1" vertex="1">
          <mxGeometry x="40.500000000000256" y="159.9999999999999" width="319.9999999999998" height="20" as="geometry" />
        </mxCell>
        <mxCell id="71" value="14 days" style="strokeColor=#DEEDFF;fillColor=#CCE5FF" parent="1" vertex="1">
          <mxGeometry x="360.500000000002" y="159.99999999999983" width="80.00000000000028" height="20" as="geometry" />
        </mxCell>
        <mxCell id="72" value="24.10.28" style="strokeColor=#DEEDFF;fillColor=#CCE5FF" parent="1" vertex="1">
          <mxGeometry x="440.5000000000023" y="159.99999999999983" width="80.00000000000028" height="20" as="geometry" />
        </mxCell>
        <mxCell id="73" value="24.11.11" style="strokeColor=#DEEDFF;fillColor=#CCE5FF" parent="1" vertex="1">
          <mxGeometry x="520.5000000000018" y="160.0000000000001" width="80.00000000000028" height="20" as="geometry" />
        </mxCell>
        <mxCell id="74" value="1" style="strokeColor=#DEEDFF" parent="1" vertex="1">
          <mxGeometry x="0.50000000000027" y="179.99999999999977" width="40" height="20" as="geometry" />
        </mxCell>
        <mxCell id="75" value="Focus on directions like Vit and U-Net" style="align=left;strokeColor=#DEEDFF" parent="1" vertex="1">
          <mxGeometry x="40.50000000000027" y="179.99999999999977" width="319.9999999999997" height="20.000000000000014" as="geometry" />
        </mxCell>
        <mxCell id="76" value="5 day" style="strokeColor=#DEEDFF" parent="1" vertex="1">
          <mxGeometry x="360.500000000002" y="179.99999999999972" width="80.00000000000028" height="20" as="geometry" />
        </mxCell>
        <mxCell id="77" value="24.10.28" style="strokeColor=#DEEDFF" parent="1" vertex="1">
          <mxGeometry x="440.5000000000023" y="179.99999999999972" width="80.00000000000028" height="20" as="geometry" />
        </mxCell>
        <mxCell id="78" value="24.11.01" style="strokeColor=#DEEDFF" parent="1" vertex="1">
          <mxGeometry x="520.5000000000018" y="180" width="80.00000000000028" height="20" as="geometry" />
        </mxCell>
        <mxCell id="79" value="2" style="strokeColor=#DEEDFF" parent="1" vertex="1">
          <mxGeometry x="0.5" y="200.00000000000017" width="40" height="20" as="geometry" />
        </mxCell>
        <mxCell id="80" value="Identify the limitations of existing model" style="align=left;strokeColor=#DEEDFF" parent="1" vertex="1">
          <mxGeometry x="40.5" y="200.00000000000017" width="320" height="20" as="geometry" />
        </mxCell>
        <mxCell id="81" value="2 days" style="strokeColor=#DEEDFF" parent="1" vertex="1">
          <mxGeometry x="360.5000000000017" y="200.0000000000001" width="80.00000000000028" height="20" as="geometry" />
        </mxCell>
        <mxCell id="82" value="24.11.01" style="strokeColor=#DEEDFF" parent="1" vertex="1">
          <mxGeometry x="440.50000000000205" y="200.0000000000001" width="80.00000000000028" height="20" as="geometry" />
        </mxCell>
        <mxCell id="83" value="24.11.04" style="strokeColor=#DEEDFF" parent="1" vertex="1">
          <mxGeometry x="520.5000000000015" y="200.0000000000004" width="80.00000000000028" height="20" as="geometry" />
        </mxCell>
        <mxCell id="84" value="3" style="strokeColor=#DEEDFF" parent="1" vertex="1">
          <mxGeometry x="0.49999999999991473" y="220.00000000000017" width="40" height="20" as="geometry" />
        </mxCell>
        <mxCell id="85" value="The principles of models are summarized in the review" style="align=left;strokeColor=#DEEDFF" parent="1" vertex="1">
          <mxGeometry x="40.499999999999915" y="220.00000000000017" width="320.0000000000001" height="20" as="geometry" />
        </mxCell>
        <mxCell id="86" value="5 day" style="strokeColor=#DEEDFF" parent="1" vertex="1">
          <mxGeometry x="360.50000000000165" y="220.0000000000001" width="80.00000000000028" height="20" as="geometry" />
        </mxCell>
        <mxCell id="87" value="24.11.04" style="strokeColor=#DEEDFF" parent="1" vertex="1">
          <mxGeometry x="440.50000000000193" y="220.0000000000001" width="80.00000000000028" height="20" as="geometry" />
        </mxCell>
        <mxCell id="88" value="24.11.09" style="strokeColor=#DEEDFF" parent="1" vertex="1">
          <mxGeometry x="520.5000000000015" y="220.0000000000004" width="80.00000000000028" height="20" as="geometry" />
        </mxCell>
        <mxCell id="89" value="4" style="strokeColor=#DEEDFF" parent="1" vertex="1">
          <mxGeometry x="0.4999999999999005" y="240.00000000000045" width="40" height="20" as="geometry" />
        </mxCell>
        <mxCell id="90" value="The research hypothesis of the theory realization project" style="align=left;strokeColor=#DEEDFF" parent="1" vertex="1">
          <mxGeometry x="40.4999999999999" y="240.00000000000045" width="320.0000000000001" height="20" as="geometry" />
        </mxCell>
        <mxCell id="91" value="2 days" style="strokeColor=#DEEDFF" parent="1" vertex="1">
          <mxGeometry x="360.50000000000165" y="240.00000000000034" width="80.00000000000028" height="20" as="geometry" />
        </mxCell>
        <mxCell id="92" value="24.11.09" style="strokeColor=#DEEDFF" parent="1" vertex="1">
          <mxGeometry x="440.50000000000193" y="240.00000000000034" width="80.00000000000028" height="20" as="geometry" />
        </mxCell>
        <mxCell id="93" value="24.11.11" style="strokeColor=#DEEDFF" parent="1" vertex="1">
          <mxGeometry x="520.5000000000015" y="240.00000000000068" width="80.00000000000028" height="20" as="geometry" />
        </mxCell>
        <mxCell id="139" value="7" style="strokeColor=#DEEDFF;fillColor=#CCE5FF" parent="1" vertex="1">
          <mxGeometry x="-3.836930773104541e-13" y="520.000000000002" width="40" height="20" as="geometry" />
        </mxCell>
        <mxCell id="140" value="Model Evaluation and Reflection" style="align=left;strokeColor=#DEEDFF;fillColor=#CCE5FF" parent="1" vertex="1">
          <mxGeometry x="39.999999999999616" y="520.000000000002" width="320.0000000000004" height="20" as="geometry" />
        </mxCell>
        <mxCell id="141" value="14 days" style="strokeColor=#DEEDFF;fillColor=#CCE5FF" parent="1" vertex="1">
          <mxGeometry x="360.00000000000136" y="520.000000000002" width="80.00000000000028" height="20" as="geometry" />
        </mxCell>
        <mxCell id="142" value="25.02.10" style="strokeColor=#DEEDFF;fillColor=#CCE5FF" parent="1" vertex="1">
          <mxGeometry x="440.0000000000016" y="520.000000000002" width="80.00000000000028" height="20" as="geometry" />
        </mxCell>
        <mxCell id="143" value="25.02.24" style="strokeColor=#DEEDFF;fillColor=#CCE5FF" parent="1" vertex="1">
          <mxGeometry x="520.0000000000011" y="520.0000000000023" width="80.00000000000028" height="20" as="geometry" />
        </mxCell>
        <mxCell id="2" value="Task Name" style="fillColor=#23445D;strokeColor=#FFFFFF;strokeWidth=2;fontColor=#FFFFFF;fontStyle=1" parent="1" vertex="1">
          <mxGeometry x="40" width="320" height="40" as="geometry" />
        </mxCell>
        <mxCell id="3" value="" style="fillColor=#23445D;strokeColor=#FFFFFF;strokeWidth=2;fontColor=#FFFFFF;fontStyle=1" parent="1" vertex="1">
          <mxGeometry width="40" height="40" as="geometry" />
        </mxCell>
        <mxCell id="4" value="September 23" style="fillColor=#23445D;strokeColor=#FFFFFF;strokeWidth=2;fontColor=#FFFFFF;fontStyle=1" parent="1" vertex="1">
          <mxGeometry x="600.0000000000018" y="1.1368683772161603e-13" width="140" height="20" as="geometry" />
        </mxCell>
        <mxCell id="5" value="M" style="fillColor=#23445D;strokeColor=#FFFFFF;strokeWidth=2;fontColor=#FFFFFF;fontStyle=1" parent="1" vertex="1">
          <mxGeometry x="600.0000000000018" y="20.000000000000114" width="20" height="20" as="geometry" />
        </mxCell>
        <mxCell id="6" value="T" style="fillColor=#23445D;strokeColor=#FFFFFF;strokeWidth=2;fontColor=#FFFFFF;fontStyle=1" parent="1" vertex="1">
          <mxGeometry x="620.0000000000018" y="20.000000000000114" width="20" height="20" as="geometry" />
        </mxCell>
        <mxCell id="7" value="W" style="fillColor=#23445D;strokeColor=#FFFFFF;strokeWidth=2;fontColor=#FFFFFF;fontStyle=1" parent="1" vertex="1">
          <mxGeometry x="640.0000000000018" y="20.000000000000114" width="20" height="20" as="geometry" />
        </mxCell>
        <mxCell id="8" value="T" style="fillColor=#23445D;strokeColor=#FFFFFF;strokeWidth=2;fontColor=#FFFFFF;fontStyle=1" parent="1" vertex="1">
          <mxGeometry x="660.0000000000018" y="20.000000000000114" width="20" height="20" as="geometry" />
        </mxCell>
        <mxCell id="9" value="F" style="fillColor=#23445D;strokeColor=#FFFFFF;strokeWidth=2;fontColor=#FFFFFF;fontStyle=1" parent="1" vertex="1">
          <mxGeometry x="680.0000000000016" y="20.000000000000114" width="20" height="20" as="geometry" />
        </mxCell>
        <mxCell id="10" value="S" style="fillColor=#23445D;strokeColor=#FFFFFF;strokeWidth=2;fontColor=#FFFFFF;fontStyle=1" parent="1" vertex="1">
          <mxGeometry x="700.0000000000016" y="20.000000000000114" width="20" height="20" as="geometry" />
        </mxCell>
        <mxCell id="11" value="S" style="fillColor=#23445D;strokeColor=#FFFFFF;strokeWidth=2;fontColor=#FFFFFF;fontStyle=1" parent="1" vertex="1">
          <mxGeometry x="720.0000000000016" y="20.000000000000114" width="20" height="20" as="geometry" />
        </mxCell>
        <mxCell id="12" value="Duration" style="fillColor=#23445D;strokeColor=#FFFFFF;strokeWidth=2;fontColor=#FFFFFF;fontStyle=1" parent="1" vertex="1">
          <mxGeometry x="360.00000000000176" y="5.684341886080802e-14" width="80.00000000000006" height="40.00000000000001" as="geometry" />
        </mxCell>
        <mxCell id="13" value="Start" style="fillColor=#23445D;strokeColor=#FFFFFF;strokeWidth=2;fontColor=#FFFFFF;fontStyle=1" parent="1" vertex="1">
          <mxGeometry x="440.0000000000018" y="5.684341886080802e-14" width="80.00000000000006" height="40.00000000000001" as="geometry" />
        </mxCell>
        <mxCell id="14" value="ETA" style="fillColor=#23445D;strokeColor=#FFFFFF;strokeWidth=2;fontColor=#FFFFFF;fontStyle=1" parent="1" vertex="1">
          <mxGeometry x="520.0000000000019" y="1.1368683772161603e-13" width="80.00000000000006" height="40.00000000000001" as="geometry" />
        </mxCell>
        <mxCell id="15" value="September 30" style="fillColor=#23445D;strokeColor=#FFFFFF;strokeWidth=2;fontColor=#FFFFFF;fontStyle=1" parent="1" vertex="1">
          <mxGeometry x="740.0000000000018" y="1.1368683772161603e-13" width="140" height="20" as="geometry" />
        </mxCell>
        <mxCell id="16" value="M" style="fillColor=#23445D;strokeColor=#FFFFFF;strokeWidth=2;fontColor=#FFFFFF;fontStyle=1" parent="1" vertex="1">
          <mxGeometry x="740.0000000000018" y="20.000000000000114" width="20" height="20" as="geometry" />
        </mxCell>
        <mxCell id="17" value="T" style="fillColor=#23445D;strokeColor=#FFFFFF;strokeWidth=2;fontColor=#FFFFFF;fontStyle=1" parent="1" vertex="1">
          <mxGeometry x="760.0000000000018" y="20.000000000000114" width="20" height="20" as="geometry" />
        </mxCell>
        <mxCell id="18" value="W" style="fillColor=#23445D;strokeColor=#FFFFFF;strokeWidth=2;fontColor=#FFFFFF;fontStyle=1" parent="1" vertex="1">
          <mxGeometry x="780.0000000000018" y="20.000000000000114" width="20" height="20" as="geometry" />
        </mxCell>
        <mxCell id="19" value="T" style="fillColor=#23445D;strokeColor=#FFFFFF;strokeWidth=2;fontColor=#FFFFFF;fontStyle=1" parent="1" vertex="1">
          <mxGeometry x="800.0000000000018" y="20.000000000000114" width="20" height="20" as="geometry" />
        </mxCell>
        <mxCell id="20" value="F" style="fillColor=#23445D;strokeColor=#FFFFFF;strokeWidth=2;fontColor=#FFFFFF;fontStyle=1" parent="1" vertex="1">
          <mxGeometry x="820.0000000000016" y="20.000000000000114" width="20" height="20" as="geometry" />
        </mxCell>
        <mxCell id="21" value="S" style="fillColor=#23445D;strokeColor=#FFFFFF;strokeWidth=2;fontColor=#FFFFFF;fontStyle=1" parent="1" vertex="1">
          <mxGeometry x="840.0000000000016" y="20.000000000000114" width="20" height="20" as="geometry" />
        </mxCell>
        <mxCell id="22" value="S" style="fillColor=#23445D;strokeColor=#FFFFFF;strokeWidth=2;fontColor=#FFFFFF;fontStyle=1" parent="1" vertex="1">
          <mxGeometry x="860.0000000000016" y="20.000000000000114" width="20" height="20" as="geometry" />
        </mxCell>
        <mxCell id="23" value="October 7" style="fillColor=#23445D;strokeColor=#FFFFFF;strokeWidth=2;fontColor=#FFFFFF;fontStyle=1" parent="1" vertex="1">
          <mxGeometry x="880.0000000000018" y="5.684341886080802e-14" width="140" height="20" as="geometry" />
        </mxCell>
        <mxCell id="24" value="M" style="fillColor=#23445D;strokeColor=#FFFFFF;strokeWidth=2;fontColor=#FFFFFF;fontStyle=1" parent="1" vertex="1">
          <mxGeometry x="880.0000000000018" y="20.000000000000057" width="20" height="20" as="geometry" />
        </mxCell>
        <mxCell id="25" value="T" style="fillColor=#23445D;strokeColor=#FFFFFF;strokeWidth=2;fontColor=#FFFFFF;fontStyle=1" parent="1" vertex="1">
          <mxGeometry x="900.0000000000018" y="20.000000000000057" width="20" height="20" as="geometry" />
        </mxCell>
        <mxCell id="26" value="W" style="fillColor=#23445D;strokeColor=#FFFFFF;strokeWidth=2;fontColor=#FFFFFF;fontStyle=1" parent="1" vertex="1">
          <mxGeometry x="920.0000000000018" y="20.000000000000057" width="20" height="20" as="geometry" />
        </mxCell>
        <mxCell id="27" value="T" style="fillColor=#23445D;strokeColor=#FFFFFF;strokeWidth=2;fontColor=#FFFFFF;fontStyle=1" parent="1" vertex="1">
          <mxGeometry x="940.0000000000018" y="20.000000000000057" width="20" height="20" as="geometry" />
        </mxCell>
        <mxCell id="28" value="F" style="fillColor=#23445D;strokeColor=#FFFFFF;strokeWidth=2;fontColor=#FFFFFF;fontStyle=1" parent="1" vertex="1">
          <mxGeometry x="960.0000000000016" y="20.000000000000057" width="20" height="20" as="geometry" />
        </mxCell>
        <mxCell id="29" value="S" style="fillColor=#23445D;strokeColor=#FFFFFF;strokeWidth=2;fontColor=#FFFFFF;fontStyle=1" parent="1" vertex="1">
          <mxGeometry x="980.0000000000016" y="20.000000000000057" width="20" height="20" as="geometry" />
        </mxCell>
        <mxCell id="30" value="S" style="fillColor=#23445D;strokeColor=#FFFFFF;strokeWidth=2;fontColor=#FFFFFF;fontStyle=1" parent="1" vertex="1">
          <mxGeometry x="1000.0000000000016" y="20.000000000000057" width="20" height="20" as="geometry" />
        </mxCell>
        <mxCell id="31" value="October 14" style="fillColor=#23445D;strokeColor=#FFFFFF;strokeWidth=2;fontColor=#FFFFFF;fontStyle=1" parent="1" vertex="1">
          <mxGeometry x="1020.0000000000018" y="5.684341886080802e-14" width="140" height="20" as="geometry" />
        </mxCell>
        <mxCell id="32" value="M" style="fillColor=#23445D;strokeColor=#FFFFFF;strokeWidth=2;fontColor=#FFFFFF;fontStyle=1" parent="1" vertex="1">
          <mxGeometry x="1020.0000000000018" y="20.000000000000057" width="20" height="20" as="geometry" />
        </mxCell>
        <mxCell id="33" value="T" style="fillColor=#23445D;strokeColor=#FFFFFF;strokeWidth=2;fontColor=#FFFFFF;fontStyle=1" parent="1" vertex="1">
          <mxGeometry x="1040.0000000000018" y="20.000000000000057" width="20" height="20" as="geometry" />
        </mxCell>
        <mxCell id="34" value="W" style="fillColor=#23445D;strokeColor=#FFFFFF;strokeWidth=2;fontColor=#FFFFFF;fontStyle=1" parent="1" vertex="1">
          <mxGeometry x="1060.0000000000018" y="20.000000000000057" width="20" height="20" as="geometry" />
        </mxCell>
        <mxCell id="35" value="T" style="fillColor=#23445D;strokeColor=#FFFFFF;strokeWidth=2;fontColor=#FFFFFF;fontStyle=1" parent="1" vertex="1">
          <mxGeometry x="1080.0000000000018" y="20.000000000000057" width="20" height="20" as="geometry" />
        </mxCell>
        <mxCell id="36" value="F" style="fillColor=#23445D;strokeColor=#FFFFFF;strokeWidth=2;fontColor=#FFFFFF;fontStyle=1" parent="1" vertex="1">
          <mxGeometry x="1100.0000000000016" y="20" width="20" height="20" as="geometry" />
        </mxCell>
        <mxCell id="37" value="S" style="fillColor=#23445D;strokeColor=#FFFFFF;strokeWidth=2;fontColor=#FFFFFF;fontStyle=1" parent="1" vertex="1">
          <mxGeometry x="1120.0000000000016" y="20" width="20" height="20" as="geometry" />
        </mxCell>
        <mxCell id="38" value="S" style="fillColor=#23445D;strokeColor=#FFFFFF;strokeWidth=2;fontColor=#FFFFFF;fontStyle=1" parent="1" vertex="1">
          <mxGeometry x="1140.0000000000016" y="20" width="20" height="20" as="geometry" />
        </mxCell>
        <mxCell id="39" value="October 21" style="fillColor=#23445D;strokeColor=#FFFFFF;strokeWidth=2;fontColor=#FFFFFF;fontStyle=1" parent="1" vertex="1">
          <mxGeometry x="1160.0000000000018" y="5.684341886080802e-14" width="140" height="20" as="geometry" />
        </mxCell>
        <mxCell id="40" value="M" style="fillColor=#23445D;strokeColor=#FFFFFF;strokeWidth=2;fontColor=#FFFFFF;fontStyle=1" parent="1" vertex="1">
          <mxGeometry x="1160.0000000000018" y="20.000000000000057" width="20" height="20" as="geometry" />
        </mxCell>
        <mxCell id="41" value="T" style="fillColor=#23445D;strokeColor=#FFFFFF;strokeWidth=2;fontColor=#FFFFFF;fontStyle=1" parent="1" vertex="1">
          <mxGeometry x="1180.0000000000018" y="20.000000000000057" width="20" height="20" as="geometry" />
        </mxCell>
        <mxCell id="42" value="W" style="fillColor=#23445D;strokeColor=#FFFFFF;strokeWidth=2;fontColor=#FFFFFF;fontStyle=1" parent="1" vertex="1">
          <mxGeometry x="1200.0000000000018" y="20.000000000000057" width="20" height="20" as="geometry" />
        </mxCell>
        <mxCell id="43" value="T" style="fillColor=#23445D;strokeColor=#FFFFFF;strokeWidth=2;fontColor=#FFFFFF;fontStyle=1" parent="1" vertex="1">
          <mxGeometry x="1220.0000000000018" y="20.000000000000057" width="20" height="20" as="geometry" />
        </mxCell>
        <mxCell id="44" value="F" style="fillColor=#23445D;strokeColor=#FFFFFF;strokeWidth=2;fontColor=#FFFFFF;fontStyle=1" parent="1" vertex="1">
          <mxGeometry x="1240.0000000000016" y="20" width="20" height="20" as="geometry" />
        </mxCell>
        <mxCell id="45" value="S" style="fillColor=#23445D;strokeColor=#FFFFFF;strokeWidth=2;fontColor=#FFFFFF;fontStyle=1" parent="1" vertex="1">
          <mxGeometry x="1260.0000000000016" y="20" width="20" height="20" as="geometry" />
        </mxCell>
        <mxCell id="46" value="S" style="fillColor=#23445D;strokeColor=#FFFFFF;strokeWidth=2;fontColor=#FFFFFF;fontStyle=1" parent="1" vertex="1">
          <mxGeometry x="1280.0000000000016" y="20" width="20" height="20" as="geometry" />
        </mxCell>
        <mxCell id="47" value="October 28" style="fillColor=#23445D;strokeColor=#FFFFFF;strokeWidth=2;fontColor=#FFFFFF;fontStyle=1" parent="1" vertex="1">
          <mxGeometry x="1300.0000000000018" width="140" height="20" as="geometry" />
        </mxCell>
        <mxCell id="48" value="M" style="fillColor=#23445D;strokeColor=#FFFFFF;strokeWidth=2;fontColor=#FFFFFF;fontStyle=1" parent="1" vertex="1">
          <mxGeometry x="1300.0000000000018" y="20" width="20" height="20" as="geometry" />
        </mxCell>
        <mxCell id="49" value="T" style="fillColor=#23445D;strokeColor=#FFFFFF;strokeWidth=2;fontColor=#FFFFFF;fontStyle=1" parent="1" vertex="1">
          <mxGeometry x="1320.0000000000018" y="20" width="20" height="20" as="geometry" />
        </mxCell>
        <mxCell id="50" value="W" style="fillColor=#23445D;strokeColor=#FFFFFF;strokeWidth=2;fontColor=#FFFFFF;fontStyle=1" parent="1" vertex="1">
          <mxGeometry x="1340.0000000000018" y="20" width="20" height="20" as="geometry" />
        </mxCell>
        <mxCell id="51" value="T" style="fillColor=#23445D;strokeColor=#FFFFFF;strokeWidth=2;fontColor=#FFFFFF;fontStyle=1" parent="1" vertex="1">
          <mxGeometry x="1360.0000000000018" y="20" width="20" height="20" as="geometry" />
        </mxCell>
        <mxCell id="52" value="F" style="fillColor=#23445D;strokeColor=#FFFFFF;strokeWidth=2;fontColor=#FFFFFF;fontStyle=1" parent="1" vertex="1">
          <mxGeometry x="1380.0000000000016" y="20" width="20" height="20" as="geometry" />
        </mxCell>
        <mxCell id="53" value="S" style="fillColor=#23445D;strokeColor=#FFFFFF;strokeWidth=2;fontColor=#FFFFFF;fontStyle=1" parent="1" vertex="1">
          <mxGeometry x="1400.0000000000016" y="20" width="20" height="20" as="geometry" />
        </mxCell>
        <mxCell id="54" value="S" style="fillColor=#23445D;strokeColor=#FFFFFF;strokeWidth=2;fontColor=#FFFFFF;fontStyle=1" parent="1" vertex="1">
          <mxGeometry x="1420.0000000000016" y="20" width="20" height="20" as="geometry" />
        </mxCell>
        <mxCell id="242" value="" style="shape=mxgraph.flowchart.process;fillColor=#AE4132;strokeColor=#000000;strokeWidth=2;opacity=50" parent="1" vertex="1">
          <mxGeometry x="600" y="180" width="100" height="20" as="geometry" />
        </mxCell>
        <mxCell id="243" value="" style="shape=mxgraph.arrows.bent_right_arrow;fillColor=#AE4132;strokeColor=none;strokeWidth=2;direction=south" parent="1" vertex="1">
          <mxGeometry x="2373.500000000002" y="269.99999999999966" width="10.000000000000341" height="9.99999999999983" as="geometry" />
        </mxCell>
        <mxCell id="244" value="" style="shape=mxgraph.flowchart.process;fillColor=#AE4132;strokeColor=none;strokeWidth=2;opacity=50" parent="1" vertex="1">
          <mxGeometry x="700" y="200" width="40" height="20" as="geometry" />
        </mxCell>
        <mxCell id="245" value="" style="shape=mxgraph.flowchart.process;fillColor=#AE4132;strokeColor=none;strokeWidth=2;opacity=50" parent="1" vertex="1">
          <mxGeometry x="740" y="220" width="100" height="20" as="geometry" />
        </mxCell>
        <mxCell id="247" value="" style="shape=mxgraph.flowchart.process;fillColor=#AE4132;strokeColor=none;strokeWidth=2;opacity=50" parent="1" vertex="1">
          <mxGeometry x="880" y="280" width="420" height="20" as="geometry" />
        </mxCell>
        <mxCell id="250" value="" style="shape=mxgraph.arrows.bent_right_arrow;fillColor=#AE4132;strokeColor=none;strokeWidth=2;direction=south" parent="1" vertex="1">
          <mxGeometry x="880.0000000000007" y="70.00000000000011" width="10.000000000000341" height="9.99999999999983" as="geometry" />
        </mxCell>
        <mxCell id="253" value="" style="shape=mxgraph.arrows.bent_right_arrow;fillColor=#AE4132;strokeColor=none;strokeWidth=2;direction=south" parent="1" vertex="1">
          <mxGeometry x="1300.000000000002" y="289.99999999999983" width="10.000000000000341" height="9.99999999999983" as="geometry" />
        </mxCell>
        <mxCell id="254" value="" style="shape=mxgraph.flowchart.process;fillColor=#AE4132;strokeColor=#000000;strokeWidth=2;opacity=100" parent="1" vertex="1">
          <mxGeometry x="600" y="40" width="840" height="20" as="geometry" />
        </mxCell>
        <mxCell id="255" value="" style="shape=mxgraph.flowchart.process;fillColor=#AE4132;strokeColor=none;strokeWidth=2;opacity=50" parent="1" vertex="1">
          <mxGeometry x="600.5" y="380" width="139.5" height="20" as="geometry" />
        </mxCell>
        <mxCell id="257" value="" style="shape=mxgraph.flowchart.process;fillColor=#AE4132;strokeColor=none;strokeWidth=2;opacity=50" parent="1" vertex="1">
          <mxGeometry x="740" y="400" width="100" height="20" as="geometry" />
        </mxCell>
        <mxCell id="258" value="" style="shape=mxgraph.flowchart.process;fillColor=#AE4132;strokeColor=none;strokeWidth=2;opacity=50" parent="1" vertex="1">
          <mxGeometry x="840" y="420" width="180" height="20" as="geometry" />
        </mxCell>
        <mxCell id="269" value="" style="shape=mxgraph.arrows.bent_right_arrow;fillColor=#AE4132;strokeColor=none;strokeWidth=2;direction=south" parent="1" vertex="1">
          <mxGeometry x="740.0000000000024" y="390.00000000000205" width="10.000000000000341" height="9.99999999999983" as="geometry" />
        </mxCell>
        <mxCell id="270" value="" style="shape=mxgraph.arrows.bent_right_arrow;fillColor=#AE4132;strokeColor=none;strokeWidth=2;direction=south" parent="1" vertex="1">
          <mxGeometry x="839.9999999999998" y="410.00000000000193" width="10.000000000000341" height="9.99999999999983" as="geometry" />
        </mxCell>
        <mxCell id="tZKbt4fKLGaMZ1IonJi8-337" value="1" style="strokeColor=#DEEDFF" parent="1" vertex="1">
          <mxGeometry x="1.3926637620897964e-12" y="60.000000000002956" width="40" height="20" as="geometry" />
        </mxCell>
        <mxCell id="tZKbt4fKLGaMZ1IonJi8-338" value="Define the overall goal of the project" style="align=left;strokeColor=#DEEDFF" parent="1" vertex="1">
          <mxGeometry x="40.00000000000139" y="60.000000000002956" width="319.99999999999864" height="20" as="geometry" />
        </mxCell>
        <mxCell id="tZKbt4fKLGaMZ1IonJi8-339" value="14 days" style="strokeColor=#DEEDFF" parent="1" vertex="1">
          <mxGeometry x="360.0000000000031" y="60.000000000002956" width="80.00000000000028" height="20" as="geometry" />
        </mxCell>
        <mxCell id="tZKbt4fKLGaMZ1IonJi8-340" value="24.09.23" style="strokeColor=#DEEDFF" parent="1" vertex="1">
          <mxGeometry x="440.0000000000034" y="60.000000000002956" width="80.00000000000028" height="20" as="geometry" />
        </mxCell>
        <mxCell id="tZKbt4fKLGaMZ1IonJi8-341" value="24.10.07" style="strokeColor=#DEEDFF" parent="1" vertex="1">
          <mxGeometry x="520.000000000003" y="60.00000000000318" width="80.00000000000028" height="20" as="geometry" />
        </mxCell>
        <mxCell id="tZKbt4fKLGaMZ1IonJi8-342" value="2" style="strokeColor=#DEEDFF" parent="1" vertex="1">
          <mxGeometry x="1.1084466677857563e-12" y="80.00000000000341" width="40" height="20" as="geometry" />
        </mxCell>
        <mxCell id="tZKbt4fKLGaMZ1IonJi8-343" value="Collect available paper" style="align=left;strokeColor=#DEEDFF" parent="1" vertex="1">
          <mxGeometry x="40.00000000000111" y="80.00000000000341" width="319.99999999999886" height="20" as="geometry" />
        </mxCell>
        <mxCell id="tZKbt4fKLGaMZ1IonJi8-344" value="14 days" style="strokeColor=#DEEDFF" parent="1" vertex="1">
          <mxGeometry x="360.00000000000284" y="80.0000000000033" width="80.00000000000028" height="20" as="geometry" />
        </mxCell>
        <mxCell id="tZKbt4fKLGaMZ1IonJi8-345" value="24.10.07" style="strokeColor=#DEEDFF" parent="1" vertex="1">
          <mxGeometry x="440.0000000000032" y="80.0000000000033" width="80.00000000000028" height="20" as="geometry" />
        </mxCell>
        <mxCell id="tZKbt4fKLGaMZ1IonJi8-346" value="24.10.21" style="strokeColor=#DEEDFF" parent="1" vertex="1">
          <mxGeometry x="520.0000000000026" y="80.00000000000364" width="80.00000000000028" height="20" as="geometry" />
        </mxCell>
        <mxCell id="tZKbt4fKLGaMZ1IonJi8-347" value="3" style="strokeColor=#DEEDFF" parent="1" vertex="1">
          <mxGeometry x="1.0231815394945443e-12" y="100.00000000000341" width="40" height="20" as="geometry" />
        </mxCell>
        <mxCell id="tZKbt4fKLGaMZ1IonJi8-348" value="Define the final deliverables" style="align=left;strokeColor=#DEEDFF" parent="1" vertex="1">
          <mxGeometry x="40.00000000000102" y="100.00000000000341" width="319.999999999999" height="20" as="geometry" />
        </mxCell>
        <mxCell id="tZKbt4fKLGaMZ1IonJi8-349" value="14 days" style="strokeColor=#DEEDFF" parent="1" vertex="1">
          <mxGeometry x="360.0000000000028" y="100.0000000000033" width="80.00000000000028" height="20" as="geometry" />
        </mxCell>
        <mxCell id="tZKbt4fKLGaMZ1IonJi8-350" value="24.10.21" style="strokeColor=#DEEDFF" parent="1" vertex="1">
          <mxGeometry x="440.00000000000307" y="100.0000000000033" width="80.00000000000028" height="20" as="geometry" />
        </mxCell>
        <mxCell id="tZKbt4fKLGaMZ1IonJi8-351" value="24.10.28" style="strokeColor=#DEEDFF" parent="1" vertex="1">
          <mxGeometry x="520.0000000000026" y="100.00000000000364" width="80.00000000000028" height="20" as="geometry" />
        </mxCell>
        <mxCell id="tZKbt4fKLGaMZ1IonJi8-357" value="" style="shape=mxgraph.flowchart.process;fillColor=#AE4132;strokeColor=#000000;strokeWidth=2;opacity=50" parent="1" vertex="1">
          <mxGeometry x="600" y="60" width="280" height="20" as="geometry" />
        </mxCell>
        <mxCell id="tZKbt4fKLGaMZ1IonJi8-358" value="" style="shape=mxgraph.flowchart.process;fillColor=#AE4132;strokeColor=#000000;strokeWidth=2;opacity=50" parent="1" vertex="1">
          <mxGeometry x="880" y="80" width="280" height="20" as="geometry" />
        </mxCell>
        <mxCell id="tZKbt4fKLGaMZ1IonJi8-360" value="Task Name" style="fillColor=#23445D;strokeColor=#FFFFFF;strokeWidth=2;fontColor=#FFFFFF;fontStyle=1" parent="1" vertex="1">
          <mxGeometry x="40" y="120" width="320" height="40" as="geometry" />
        </mxCell>
        <mxCell id="tZKbt4fKLGaMZ1IonJi8-361" value="" style="fillColor=#23445D;strokeColor=#FFFFFF;strokeWidth=2;fontColor=#FFFFFF;fontStyle=1" parent="1" vertex="1">
          <mxGeometry y="120" width="40" height="40" as="geometry" />
        </mxCell>
        <mxCell id="tZKbt4fKLGaMZ1IonJi8-362" value="November 4" style="fillColor=#23445D;strokeColor=#FFFFFF;strokeWidth=2;fontColor=#FFFFFF;fontStyle=1" parent="1" vertex="1">
          <mxGeometry x="600.0000000000018" y="120.00000000000011" width="140" height="20" as="geometry" />
        </mxCell>
        <mxCell id="tZKbt4fKLGaMZ1IonJi8-363" value="M" style="fillColor=#23445D;strokeColor=#FFFFFF;strokeWidth=2;fontColor=#FFFFFF;fontStyle=1" parent="1" vertex="1">
          <mxGeometry x="600.0000000000018" y="140.0000000000001" width="20" height="20" as="geometry" />
        </mxCell>
        <mxCell id="tZKbt4fKLGaMZ1IonJi8-364" value="T" style="fillColor=#23445D;strokeColor=#FFFFFF;strokeWidth=2;fontColor=#FFFFFF;fontStyle=1" parent="1" vertex="1">
          <mxGeometry x="620.0000000000018" y="140.0000000000001" width="20" height="20" as="geometry" />
        </mxCell>
        <mxCell id="tZKbt4fKLGaMZ1IonJi8-365" value="W" style="fillColor=#23445D;strokeColor=#FFFFFF;strokeWidth=2;fontColor=#FFFFFF;fontStyle=1" parent="1" vertex="1">
          <mxGeometry x="640.0000000000018" y="140.0000000000001" width="20" height="20" as="geometry" />
        </mxCell>
        <mxCell id="tZKbt4fKLGaMZ1IonJi8-366" value="T" style="fillColor=#23445D;strokeColor=#FFFFFF;strokeWidth=2;fontColor=#FFFFFF;fontStyle=1" parent="1" vertex="1">
          <mxGeometry x="660.0000000000018" y="140.0000000000001" width="20" height="20" as="geometry" />
        </mxCell>
        <mxCell id="tZKbt4fKLGaMZ1IonJi8-367" value="F" style="fillColor=#23445D;strokeColor=#FFFFFF;strokeWidth=2;fontColor=#FFFFFF;fontStyle=1" parent="1" vertex="1">
          <mxGeometry x="680.0000000000016" y="140.0000000000001" width="20" height="20" as="geometry" />
        </mxCell>
        <mxCell id="tZKbt4fKLGaMZ1IonJi8-368" value="S" style="fillColor=#23445D;strokeColor=#FFFFFF;strokeWidth=2;fontColor=#FFFFFF;fontStyle=1" parent="1" vertex="1">
          <mxGeometry x="700.0000000000016" y="140.0000000000001" width="20" height="20" as="geometry" />
        </mxCell>
        <mxCell id="tZKbt4fKLGaMZ1IonJi8-369" value="S" style="fillColor=#23445D;strokeColor=#FFFFFF;strokeWidth=2;fontColor=#FFFFFF;fontStyle=1" parent="1" vertex="1">
          <mxGeometry x="720.0000000000016" y="140.0000000000001" width="20" height="20" as="geometry" />
        </mxCell>
        <mxCell id="tZKbt4fKLGaMZ1IonJi8-370" value="Duration" style="fillColor=#23445D;strokeColor=#FFFFFF;strokeWidth=2;fontColor=#FFFFFF;fontStyle=1" parent="1" vertex="1">
          <mxGeometry x="360.00000000000176" y="120.00000000000006" width="80.00000000000006" height="40.00000000000001" as="geometry" />
        </mxCell>
        <mxCell id="tZKbt4fKLGaMZ1IonJi8-371" value="Start" style="fillColor=#23445D;strokeColor=#FFFFFF;strokeWidth=2;fontColor=#FFFFFF;fontStyle=1" parent="1" vertex="1">
          <mxGeometry x="440.0000000000018" y="120.00000000000006" width="80.00000000000006" height="40.00000000000001" as="geometry" />
        </mxCell>
        <mxCell id="tZKbt4fKLGaMZ1IonJi8-372" value="ETA" style="fillColor=#23445D;strokeColor=#FFFFFF;strokeWidth=2;fontColor=#FFFFFF;fontStyle=1" parent="1" vertex="1">
          <mxGeometry x="520.0000000000019" y="120.00000000000011" width="80.00000000000006" height="40.00000000000001" as="geometry" />
        </mxCell>
        <mxCell id="tZKbt4fKLGaMZ1IonJi8-373" value="November 11" style="fillColor=#23445D;strokeColor=#FFFFFF;strokeWidth=2;fontColor=#FFFFFF;fontStyle=1" parent="1" vertex="1">
          <mxGeometry x="740.0000000000018" y="120.00000000000011" width="140" height="20" as="geometry" />
        </mxCell>
        <mxCell id="tZKbt4fKLGaMZ1IonJi8-374" value="M" style="fillColor=#23445D;strokeColor=#FFFFFF;strokeWidth=2;fontColor=#FFFFFF;fontStyle=1" parent="1" vertex="1">
          <mxGeometry x="740.0000000000018" y="140.0000000000001" width="20" height="20" as="geometry" />
        </mxCell>
        <mxCell id="tZKbt4fKLGaMZ1IonJi8-375" value="T" style="fillColor=#23445D;strokeColor=#FFFFFF;strokeWidth=2;fontColor=#FFFFFF;fontStyle=1" parent="1" vertex="1">
          <mxGeometry x="760.0000000000018" y="140.0000000000001" width="20" height="20" as="geometry" />
        </mxCell>
        <mxCell id="tZKbt4fKLGaMZ1IonJi8-376" value="W" style="fillColor=#23445D;strokeColor=#FFFFFF;strokeWidth=2;fontColor=#FFFFFF;fontStyle=1" parent="1" vertex="1">
          <mxGeometry x="780.0000000000018" y="140.0000000000001" width="20" height="20" as="geometry" />
        </mxCell>
        <mxCell id="tZKbt4fKLGaMZ1IonJi8-377" value="T" style="fillColor=#23445D;strokeColor=#FFFFFF;strokeWidth=2;fontColor=#FFFFFF;fontStyle=1" parent="1" vertex="1">
          <mxGeometry x="800.0000000000018" y="140.0000000000001" width="20" height="20" as="geometry" />
        </mxCell>
        <mxCell id="tZKbt4fKLGaMZ1IonJi8-378" value="F" style="fillColor=#23445D;strokeColor=#FFFFFF;strokeWidth=2;fontColor=#FFFFFF;fontStyle=1" parent="1" vertex="1">
          <mxGeometry x="820.0000000000016" y="140.0000000000001" width="20" height="20" as="geometry" />
        </mxCell>
        <mxCell id="tZKbt4fKLGaMZ1IonJi8-379" value="S" style="fillColor=#23445D;strokeColor=#FFFFFF;strokeWidth=2;fontColor=#FFFFFF;fontStyle=1" parent="1" vertex="1">
          <mxGeometry x="840.0000000000016" y="140.0000000000001" width="20" height="20" as="geometry" />
        </mxCell>
        <mxCell id="tZKbt4fKLGaMZ1IonJi8-380" value="S" style="fillColor=#23445D;strokeColor=#FFFFFF;strokeWidth=2;fontColor=#FFFFFF;fontStyle=1" parent="1" vertex="1">
          <mxGeometry x="860.0000000000016" y="140.0000000000001" width="20" height="20" as="geometry" />
        </mxCell>
        <mxCell id="tZKbt4fKLGaMZ1IonJi8-381" value="November 18" style="fillColor=#23445D;strokeColor=#FFFFFF;strokeWidth=2;fontColor=#FFFFFF;fontStyle=1" parent="1" vertex="1">
          <mxGeometry x="880.0000000000018" y="120.00000000000006" width="140" height="20" as="geometry" />
        </mxCell>
        <mxCell id="tZKbt4fKLGaMZ1IonJi8-382" value="M" style="fillColor=#23445D;strokeColor=#FFFFFF;strokeWidth=2;fontColor=#FFFFFF;fontStyle=1" parent="1" vertex="1">
          <mxGeometry x="880.0000000000018" y="140.00000000000006" width="20" height="20" as="geometry" />
        </mxCell>
        <mxCell id="tZKbt4fKLGaMZ1IonJi8-383" value="T" style="fillColor=#23445D;strokeColor=#FFFFFF;strokeWidth=2;fontColor=#FFFFFF;fontStyle=1" parent="1" vertex="1">
          <mxGeometry x="900.0000000000018" y="140.00000000000006" width="20" height="20" as="geometry" />
        </mxCell>
        <mxCell id="tZKbt4fKLGaMZ1IonJi8-384" value="W" style="fillColor=#23445D;strokeColor=#FFFFFF;strokeWidth=2;fontColor=#FFFFFF;fontStyle=1" parent="1" vertex="1">
          <mxGeometry x="920.0000000000018" y="140.00000000000006" width="20" height="20" as="geometry" />
        </mxCell>
        <mxCell id="tZKbt4fKLGaMZ1IonJi8-385" value="T" style="fillColor=#23445D;strokeColor=#FFFFFF;strokeWidth=2;fontColor=#FFFFFF;fontStyle=1" parent="1" vertex="1">
          <mxGeometry x="940.0000000000018" y="140.00000000000006" width="20" height="20" as="geometry" />
        </mxCell>
        <mxCell id="tZKbt4fKLGaMZ1IonJi8-386" value="F" style="fillColor=#23445D;strokeColor=#FFFFFF;strokeWidth=2;fontColor=#FFFFFF;fontStyle=1" parent="1" vertex="1">
          <mxGeometry x="960.0000000000016" y="140.00000000000006" width="20" height="20" as="geometry" />
        </mxCell>
        <mxCell id="tZKbt4fKLGaMZ1IonJi8-387" value="S" style="fillColor=#23445D;strokeColor=#FFFFFF;strokeWidth=2;fontColor=#FFFFFF;fontStyle=1" parent="1" vertex="1">
          <mxGeometry x="980.0000000000016" y="140.00000000000006" width="20" height="20" as="geometry" />
        </mxCell>
        <mxCell id="tZKbt4fKLGaMZ1IonJi8-388" value="S" style="fillColor=#23445D;strokeColor=#FFFFFF;strokeWidth=2;fontColor=#FFFFFF;fontStyle=1" parent="1" vertex="1">
          <mxGeometry x="1000.0000000000016" y="140.00000000000006" width="20" height="20" as="geometry" />
        </mxCell>
        <mxCell id="tZKbt4fKLGaMZ1IonJi8-389" value="November 25" style="fillColor=#23445D;strokeColor=#FFFFFF;strokeWidth=2;fontColor=#FFFFFF;fontStyle=1" parent="1" vertex="1">
          <mxGeometry x="1020.0000000000018" y="120.00000000000006" width="140" height="20" as="geometry" />
        </mxCell>
        <mxCell id="tZKbt4fKLGaMZ1IonJi8-390" value="M" style="fillColor=#23445D;strokeColor=#FFFFFF;strokeWidth=2;fontColor=#FFFFFF;fontStyle=1" parent="1" vertex="1">
          <mxGeometry x="1020.0000000000018" y="140.00000000000006" width="20" height="20" as="geometry" />
        </mxCell>
        <mxCell id="tZKbt4fKLGaMZ1IonJi8-391" value="T" style="fillColor=#23445D;strokeColor=#FFFFFF;strokeWidth=2;fontColor=#FFFFFF;fontStyle=1" parent="1" vertex="1">
          <mxGeometry x="1040.0000000000018" y="140.00000000000006" width="20" height="20" as="geometry" />
        </mxCell>
        <mxCell id="tZKbt4fKLGaMZ1IonJi8-392" value="W" style="fillColor=#23445D;strokeColor=#FFFFFF;strokeWidth=2;fontColor=#FFFFFF;fontStyle=1" parent="1" vertex="1">
          <mxGeometry x="1060.0000000000018" y="140.00000000000006" width="20" height="20" as="geometry" />
        </mxCell>
        <mxCell id="tZKbt4fKLGaMZ1IonJi8-393" value="T" style="fillColor=#23445D;strokeColor=#FFFFFF;strokeWidth=2;fontColor=#FFFFFF;fontStyle=1" parent="1" vertex="1">
          <mxGeometry x="1080.0000000000018" y="140.00000000000006" width="20" height="20" as="geometry" />
        </mxCell>
        <mxCell id="tZKbt4fKLGaMZ1IonJi8-394" value="F" style="fillColor=#23445D;strokeColor=#FFFFFF;strokeWidth=2;fontColor=#FFFFFF;fontStyle=1" parent="1" vertex="1">
          <mxGeometry x="1100.0000000000016" y="140" width="20" height="20" as="geometry" />
        </mxCell>
        <mxCell id="tZKbt4fKLGaMZ1IonJi8-395" value="S" style="fillColor=#23445D;strokeColor=#FFFFFF;strokeWidth=2;fontColor=#FFFFFF;fontStyle=1" parent="1" vertex="1">
          <mxGeometry x="1120.0000000000016" y="140" width="20" height="20" as="geometry" />
        </mxCell>
        <mxCell id="tZKbt4fKLGaMZ1IonJi8-396" value="S" style="fillColor=#23445D;strokeColor=#FFFFFF;strokeWidth=2;fontColor=#FFFFFF;fontStyle=1" parent="1" vertex="1">
          <mxGeometry x="1140.0000000000016" y="140" width="20" height="20" as="geometry" />
        </mxCell>
        <mxCell id="tZKbt4fKLGaMZ1IonJi8-397" value="December 2" style="fillColor=#23445D;strokeColor=#FFFFFF;strokeWidth=2;fontColor=#FFFFFF;fontStyle=1" parent="1" vertex="1">
          <mxGeometry x="1160.0000000000018" y="120.00000000000006" width="140" height="20" as="geometry" />
        </mxCell>
        <mxCell id="tZKbt4fKLGaMZ1IonJi8-398" value="M" style="fillColor=#23445D;strokeColor=#FFFFFF;strokeWidth=2;fontColor=#FFFFFF;fontStyle=1" parent="1" vertex="1">
          <mxGeometry x="1160.0000000000018" y="140.00000000000006" width="20" height="20" as="geometry" />
        </mxCell>
        <mxCell id="tZKbt4fKLGaMZ1IonJi8-399" value="T" style="fillColor=#23445D;strokeColor=#FFFFFF;strokeWidth=2;fontColor=#FFFFFF;fontStyle=1" parent="1" vertex="1">
          <mxGeometry x="1180.0000000000018" y="140.00000000000006" width="20" height="20" as="geometry" />
        </mxCell>
        <mxCell id="tZKbt4fKLGaMZ1IonJi8-400" value="W" style="fillColor=#23445D;strokeColor=#FFFFFF;strokeWidth=2;fontColor=#FFFFFF;fontStyle=1" parent="1" vertex="1">
          <mxGeometry x="1200.0000000000018" y="140.00000000000006" width="20" height="20" as="geometry" />
        </mxCell>
        <mxCell id="tZKbt4fKLGaMZ1IonJi8-401" value="T" style="fillColor=#23445D;strokeColor=#FFFFFF;strokeWidth=2;fontColor=#FFFFFF;fontStyle=1" parent="1" vertex="1">
          <mxGeometry x="1220.0000000000018" y="140.00000000000006" width="20" height="20" as="geometry" />
        </mxCell>
        <mxCell id="tZKbt4fKLGaMZ1IonJi8-402" value="F" style="fillColor=#23445D;strokeColor=#FFFFFF;strokeWidth=2;fontColor=#FFFFFF;fontStyle=1" parent="1" vertex="1">
          <mxGeometry x="1240.0000000000016" y="140" width="20" height="20" as="geometry" />
        </mxCell>
        <mxCell id="tZKbt4fKLGaMZ1IonJi8-403" value="S" style="fillColor=#23445D;strokeColor=#FFFFFF;strokeWidth=2;fontColor=#FFFFFF;fontStyle=1" parent="1" vertex="1">
          <mxGeometry x="1260.0000000000016" y="140" width="20" height="20" as="geometry" />
        </mxCell>
        <mxCell id="tZKbt4fKLGaMZ1IonJi8-404" value="S" style="fillColor=#23445D;strokeColor=#FFFFFF;strokeWidth=2;fontColor=#FFFFFF;fontStyle=1" parent="1" vertex="1">
          <mxGeometry x="1280.0000000000016" y="140" width="20" height="20" as="geometry" />
        </mxCell>
        <mxCell id="tZKbt4fKLGaMZ1IonJi8-405" value="December 9" style="fillColor=#23445D;strokeColor=#FFFFFF;strokeWidth=2;fontColor=#FFFFFF;fontStyle=1" parent="1" vertex="1">
          <mxGeometry x="1300.0000000000018" y="120" width="140" height="20" as="geometry" />
        </mxCell>
        <mxCell id="tZKbt4fKLGaMZ1IonJi8-406" value="M" style="fillColor=#23445D;strokeColor=#FFFFFF;strokeWidth=2;fontColor=#FFFFFF;fontStyle=1" parent="1" vertex="1">
          <mxGeometry x="1300.0000000000018" y="140" width="20" height="20" as="geometry" />
        </mxCell>
        <mxCell id="tZKbt4fKLGaMZ1IonJi8-407" value="T" style="fillColor=#23445D;strokeColor=#FFFFFF;strokeWidth=2;fontColor=#FFFFFF;fontStyle=1" parent="1" vertex="1">
          <mxGeometry x="1320.0000000000018" y="140" width="20" height="20" as="geometry" />
        </mxCell>
        <mxCell id="tZKbt4fKLGaMZ1IonJi8-408" value="W" style="fillColor=#23445D;strokeColor=#FFFFFF;strokeWidth=2;fontColor=#FFFFFF;fontStyle=1" parent="1" vertex="1">
          <mxGeometry x="1340.0000000000018" y="140" width="20" height="20" as="geometry" />
        </mxCell>
        <mxCell id="tZKbt4fKLGaMZ1IonJi8-409" value="T" style="fillColor=#23445D;strokeColor=#FFFFFF;strokeWidth=2;fontColor=#FFFFFF;fontStyle=1" parent="1" vertex="1">
          <mxGeometry x="1360.0000000000018" y="140" width="20" height="20" as="geometry" />
        </mxCell>
        <mxCell id="tZKbt4fKLGaMZ1IonJi8-410" value="F" style="fillColor=#23445D;strokeColor=#FFFFFF;strokeWidth=2;fontColor=#FFFFFF;fontStyle=1" parent="1" vertex="1">
          <mxGeometry x="1380.0000000000016" y="140" width="20" height="20" as="geometry" />
        </mxCell>
        <mxCell id="tZKbt4fKLGaMZ1IonJi8-411" value="S" style="fillColor=#23445D;strokeColor=#FFFFFF;strokeWidth=2;fontColor=#FFFFFF;fontStyle=1" parent="1" vertex="1">
          <mxGeometry x="1400.0000000000016" y="140" width="20" height="20" as="geometry" />
        </mxCell>
        <mxCell id="tZKbt4fKLGaMZ1IonJi8-412" value="S" style="fillColor=#23445D;strokeColor=#FFFFFF;strokeWidth=2;fontColor=#FFFFFF;fontStyle=1" parent="1" vertex="1">
          <mxGeometry x="1420.0000000000016" y="140" width="20" height="20" as="geometry" />
        </mxCell>
        <mxCell id="tZKbt4fKLGaMZ1IonJi8-359" value="" style="shape=mxgraph.flowchart.process;fillColor=#AE4132;strokeColor=#000000;strokeWidth=2;opacity=50" parent="1" vertex="1">
          <mxGeometry x="1160" y="100" width="280" height="20" as="geometry" />
        </mxCell>
        <mxCell id="tZKbt4fKLGaMZ1IonJi8-413" value="" style="shape=mxgraph.arrows.bent_right_arrow;fillColor=#AE4132;strokeColor=none;strokeWidth=2;direction=south" parent="1" vertex="1">
          <mxGeometry x="1160.0000000000007" y="90.00000000000011" width="10.000000000000341" height="9.99999999999983" as="geometry" />
        </mxCell>
        <mxCell id="tZKbt4fKLGaMZ1IonJi8-414" value="" style="shape=mxgraph.flowchart.process;fillColor=#AE4132;strokeColor=#000000;strokeWidth=2;opacity=100" parent="1" vertex="1">
          <mxGeometry x="600.5" y="160" width="279.5" height="20" as="geometry" />
        </mxCell>
        <mxCell id="tZKbt4fKLGaMZ1IonJi8-415" value="" style="shape=mxgraph.arrows.bent_right_arrow;fillColor=#AE4132;strokeColor=none;strokeWidth=2;direction=south" parent="1" vertex="1">
          <mxGeometry x="700.0000000000007" y="190.0000000000001" width="10.000000000000341" height="9.99999999999983" as="geometry" />
        </mxCell>
        <mxCell id="tZKbt4fKLGaMZ1IonJi8-416" value="" style="shape=mxgraph.arrows.bent_right_arrow;fillColor=#AE4132;strokeColor=none;strokeWidth=2;direction=south" parent="1" vertex="1">
          <mxGeometry x="740.0000000000007" y="210.0000000000001" width="10.000000000000341" height="9.99999999999983" as="geometry" />
        </mxCell>
        <mxCell id="tZKbt4fKLGaMZ1IonJi8-417" value="" style="shape=mxgraph.flowchart.process;fillColor=#AE4132;strokeColor=none;strokeWidth=2;opacity=50" parent="1" vertex="1">
          <mxGeometry x="840" y="240" width="40" height="20" as="geometry" />
        </mxCell>
        <mxCell id="tZKbt4fKLGaMZ1IonJi8-418" value="" style="shape=mxgraph.arrows.bent_right_arrow;fillColor=#AE4132;strokeColor=none;strokeWidth=2;direction=south" parent="1" vertex="1">
          <mxGeometry x="840.0000000000007" y="230.0000000000001" width="10.000000000000341" height="9.99999999999983" as="geometry" />
        </mxCell>
        <mxCell id="tZKbt4fKLGaMZ1IonJi8-419" value="3" style="strokeColor=#DEEDFF;fillColor=#CCE5FF" parent="1" vertex="1">
          <mxGeometry x="0.5000000000003695" y="260.000000000001" width="40" height="20" as="geometry" />
        </mxCell>
        <mxCell id="tZKbt4fKLGaMZ1IonJi8-420" value="Model design and implementation" style="align=left;strokeColor=#DEEDFF;fillColor=#CCE5FF" parent="1" vertex="1">
          <mxGeometry x="40.50000000000037" y="260.000000000001" width="319.99999999999966" height="20.00000000000003" as="geometry" />
        </mxCell>
        <mxCell id="tZKbt4fKLGaMZ1IonJi8-421" value="28 days" style="strokeColor=#DEEDFF;fillColor=#CCE5FF" parent="1" vertex="1">
          <mxGeometry x="360.5000000000021" y="260.0000000000009" width="80.00000000000028" height="20" as="geometry" />
        </mxCell>
        <mxCell id="tZKbt4fKLGaMZ1IonJi8-422" value="24.11.11" style="strokeColor=#DEEDFF;fillColor=#CCE5FF" parent="1" vertex="1">
          <mxGeometry x="440.5000000000025" y="260.0000000000009" width="80.00000000000028" height="20" as="geometry" />
        </mxCell>
        <mxCell id="tZKbt4fKLGaMZ1IonJi8-423" value="24.12.09" style="strokeColor=#DEEDFF;fillColor=#CCE5FF" parent="1" vertex="1">
          <mxGeometry x="520.5000000000018" y="260.00000000000125" width="80.00000000000028" height="20" as="geometry" />
        </mxCell>
        <mxCell id="tZKbt4fKLGaMZ1IonJi8-424" value="" style="shape=mxgraph.flowchart.process;fillColor=#AE4132;strokeColor=#000000;strokeWidth=2;opacity=100" parent="1" vertex="1">
          <mxGeometry x="880" y="260" width="560" height="20" as="geometry" />
        </mxCell>
        <mxCell id="tZKbt4fKLGaMZ1IonJi8-445" value="1" style="strokeColor=#DEEDFF" parent="1" vertex="1">
          <mxGeometry x="0.5000000000013927" y="280.00000000000296" width="40" height="20" as="geometry" />
        </mxCell>
        <mxCell id="tZKbt4fKLGaMZ1IonJi8-446" value="Design the Vim-like model" style="align=left;strokeColor=#DEEDFF" parent="1" vertex="1">
          <mxGeometry x="40.50000000000139" y="280.00000000000296" width="319.99999999999864" height="20" as="geometry" />
        </mxCell>
        <mxCell id="tZKbt4fKLGaMZ1IonJi8-447" value="21 days" style="strokeColor=#DEEDFF" parent="1" vertex="1">
          <mxGeometry x="360.5000000000031" y="280.00000000000296" width="80.00000000000028" height="20" as="geometry" />
        </mxCell>
        <mxCell id="tZKbt4fKLGaMZ1IonJi8-448" value="24.11.11" style="strokeColor=#DEEDFF" parent="1" vertex="1">
          <mxGeometry x="440.5000000000034" y="280.00000000000296" width="80.00000000000028" height="20" as="geometry" />
        </mxCell>
        <mxCell id="tZKbt4fKLGaMZ1IonJi8-449" value="24.12.02" style="strokeColor=#DEEDFF" parent="1" vertex="1">
          <mxGeometry x="520.500000000003" y="280.0000000000032" width="80.00000000000028" height="20" as="geometry" />
        </mxCell>
        <mxCell id="tZKbt4fKLGaMZ1IonJi8-450" value="2" style="strokeColor=#DEEDFF" parent="1" vertex="1">
          <mxGeometry x="0.5000000000011084" y="300.0000000000034" width="40" height="20" as="geometry" />
        </mxCell>
        <mxCell id="tZKbt4fKLGaMZ1IonJi8-451" value="Model Code Writing" style="align=left;strokeColor=#DEEDFF" parent="1" vertex="1">
          <mxGeometry x="40.50000000000111" y="300.0000000000034" width="319.99999999999886" height="20" as="geometry" />
        </mxCell>
        <mxCell id="tZKbt4fKLGaMZ1IonJi8-452" value="7 days" style="strokeColor=#DEEDFF" parent="1" vertex="1">
          <mxGeometry x="360.50000000000284" y="300.0000000000033" width="80.00000000000028" height="20" as="geometry" />
        </mxCell>
        <mxCell id="tZKbt4fKLGaMZ1IonJi8-453" value="24.12.02" style="strokeColor=#DEEDFF" parent="1" vertex="1">
          <mxGeometry x="440.5000000000032" y="300.0000000000033" width="80.00000000000028" height="20" as="geometry" />
        </mxCell>
        <mxCell id="tZKbt4fKLGaMZ1IonJi8-454" value="24.12.09" style="strokeColor=#DEEDFF" parent="1" vertex="1">
          <mxGeometry x="520.5000000000026" y="300.00000000000364" width="80.00000000000028" height="20" as="geometry" />
        </mxCell>
        <mxCell id="tZKbt4fKLGaMZ1IonJi8-465" value="Task Name" style="fillColor=#23445D;strokeColor=#FFFFFF;strokeWidth=2;fontColor=#FFFFFF;fontStyle=1" parent="1" vertex="1">
          <mxGeometry x="40" y="320" width="320" height="40" as="geometry" />
        </mxCell>
        <mxCell id="tZKbt4fKLGaMZ1IonJi8-466" value="" style="fillColor=#23445D;strokeColor=#FFFFFF;strokeWidth=2;fontColor=#FFFFFF;fontStyle=1" parent="1" vertex="1">
          <mxGeometry y="320" width="40" height="40" as="geometry" />
        </mxCell>
        <mxCell id="tZKbt4fKLGaMZ1IonJi8-467" value="December 16" style="fillColor=#23445D;strokeColor=#FFFFFF;strokeWidth=2;fontColor=#FFFFFF;fontStyle=1" parent="1" vertex="1">
          <mxGeometry x="600.0000000000018" y="320.0000000000001" width="140" height="20" as="geometry" />
        </mxCell>
        <mxCell id="tZKbt4fKLGaMZ1IonJi8-468" value="M" style="fillColor=#23445D;strokeColor=#FFFFFF;strokeWidth=2;fontColor=#FFFFFF;fontStyle=1" parent="1" vertex="1">
          <mxGeometry x="600.0000000000018" y="340.0000000000001" width="20" height="20" as="geometry" />
        </mxCell>
        <mxCell id="tZKbt4fKLGaMZ1IonJi8-469" value="T" style="fillColor=#23445D;strokeColor=#FFFFFF;strokeWidth=2;fontColor=#FFFFFF;fontStyle=1" parent="1" vertex="1">
          <mxGeometry x="620.0000000000018" y="340.0000000000001" width="20" height="20" as="geometry" />
        </mxCell>
        <mxCell id="tZKbt4fKLGaMZ1IonJi8-470" value="W" style="fillColor=#23445D;strokeColor=#FFFFFF;strokeWidth=2;fontColor=#FFFFFF;fontStyle=1" parent="1" vertex="1">
          <mxGeometry x="640.0000000000018" y="340.0000000000001" width="20" height="20" as="geometry" />
        </mxCell>
        <mxCell id="tZKbt4fKLGaMZ1IonJi8-471" value="T" style="fillColor=#23445D;strokeColor=#FFFFFF;strokeWidth=2;fontColor=#FFFFFF;fontStyle=1" parent="1" vertex="1">
          <mxGeometry x="660.0000000000018" y="340.0000000000001" width="20" height="20" as="geometry" />
        </mxCell>
        <mxCell id="tZKbt4fKLGaMZ1IonJi8-472" value="F" style="fillColor=#23445D;strokeColor=#FFFFFF;strokeWidth=2;fontColor=#FFFFFF;fontStyle=1" parent="1" vertex="1">
          <mxGeometry x="680.0000000000016" y="340.0000000000001" width="20" height="20" as="geometry" />
        </mxCell>
        <mxCell id="tZKbt4fKLGaMZ1IonJi8-473" value="S" style="fillColor=#23445D;strokeColor=#FFFFFF;strokeWidth=2;fontColor=#FFFFFF;fontStyle=1" parent="1" vertex="1">
          <mxGeometry x="700.0000000000016" y="340.0000000000001" width="20" height="20" as="geometry" />
        </mxCell>
        <mxCell id="tZKbt4fKLGaMZ1IonJi8-474" value="S" style="fillColor=#23445D;strokeColor=#FFFFFF;strokeWidth=2;fontColor=#FFFFFF;fontStyle=1" parent="1" vertex="1">
          <mxGeometry x="720.0000000000016" y="340.0000000000001" width="20" height="20" as="geometry" />
        </mxCell>
        <mxCell id="tZKbt4fKLGaMZ1IonJi8-475" value="Duration" style="fillColor=#23445D;strokeColor=#FFFFFF;strokeWidth=2;fontColor=#FFFFFF;fontStyle=1" parent="1" vertex="1">
          <mxGeometry x="360.00000000000176" y="320.00000000000006" width="80.00000000000006" height="40.00000000000001" as="geometry" />
        </mxCell>
        <mxCell id="tZKbt4fKLGaMZ1IonJi8-476" value="Start" style="fillColor=#23445D;strokeColor=#FFFFFF;strokeWidth=2;fontColor=#FFFFFF;fontStyle=1" parent="1" vertex="1">
          <mxGeometry x="440.0000000000018" y="320.00000000000006" width="80.00000000000006" height="40.00000000000001" as="geometry" />
        </mxCell>
        <mxCell id="tZKbt4fKLGaMZ1IonJi8-477" value="ETA" style="fillColor=#23445D;strokeColor=#FFFFFF;strokeWidth=2;fontColor=#FFFFFF;fontStyle=1" parent="1" vertex="1">
          <mxGeometry x="520.0000000000019" y="320.0000000000001" width="80.00000000000006" height="40.00000000000001" as="geometry" />
        </mxCell>
        <mxCell id="tZKbt4fKLGaMZ1IonJi8-478" value="December 23" style="fillColor=#23445D;strokeColor=#FFFFFF;strokeWidth=2;fontColor=#FFFFFF;fontStyle=1" parent="1" vertex="1">
          <mxGeometry x="740.0000000000018" y="320.0000000000001" width="140" height="20" as="geometry" />
        </mxCell>
        <mxCell id="tZKbt4fKLGaMZ1IonJi8-479" value="M" style="fillColor=#23445D;strokeColor=#FFFFFF;strokeWidth=2;fontColor=#FFFFFF;fontStyle=1" parent="1" vertex="1">
          <mxGeometry x="740.0000000000018" y="340.0000000000001" width="20" height="20" as="geometry" />
        </mxCell>
        <mxCell id="tZKbt4fKLGaMZ1IonJi8-480" value="T" style="fillColor=#23445D;strokeColor=#FFFFFF;strokeWidth=2;fontColor=#FFFFFF;fontStyle=1" parent="1" vertex="1">
          <mxGeometry x="760.0000000000018" y="340.0000000000001" width="20" height="20" as="geometry" />
        </mxCell>
        <mxCell id="tZKbt4fKLGaMZ1IonJi8-481" value="W" style="fillColor=#23445D;strokeColor=#FFFFFF;strokeWidth=2;fontColor=#FFFFFF;fontStyle=1" parent="1" vertex="1">
          <mxGeometry x="780.0000000000018" y="340.0000000000001" width="20" height="20" as="geometry" />
        </mxCell>
        <mxCell id="tZKbt4fKLGaMZ1IonJi8-482" value="T" style="fillColor=#23445D;strokeColor=#FFFFFF;strokeWidth=2;fontColor=#FFFFFF;fontStyle=1" parent="1" vertex="1">
          <mxGeometry x="800.0000000000018" y="340.0000000000001" width="20" height="20" as="geometry" />
        </mxCell>
        <mxCell id="tZKbt4fKLGaMZ1IonJi8-483" value="F" style="fillColor=#23445D;strokeColor=#FFFFFF;strokeWidth=2;fontColor=#FFFFFF;fontStyle=1" parent="1" vertex="1">
          <mxGeometry x="820.0000000000016" y="340.0000000000001" width="20" height="20" as="geometry" />
        </mxCell>
        <mxCell id="tZKbt4fKLGaMZ1IonJi8-484" value="S" style="fillColor=#23445D;strokeColor=#FFFFFF;strokeWidth=2;fontColor=#FFFFFF;fontStyle=1" parent="1" vertex="1">
          <mxGeometry x="840.0000000000016" y="340.0000000000001" width="20" height="20" as="geometry" />
        </mxCell>
        <mxCell id="tZKbt4fKLGaMZ1IonJi8-485" value="S" style="fillColor=#23445D;strokeColor=#FFFFFF;strokeWidth=2;fontColor=#FFFFFF;fontStyle=1" parent="1" vertex="1">
          <mxGeometry x="860.0000000000016" y="340.0000000000001" width="20" height="20" as="geometry" />
        </mxCell>
        <mxCell id="tZKbt4fKLGaMZ1IonJi8-486" value="December 30" style="fillColor=#23445D;strokeColor=#FFFFFF;strokeWidth=2;fontColor=#FFFFFF;fontStyle=1" parent="1" vertex="1">
          <mxGeometry x="880.0000000000018" y="320.00000000000006" width="140" height="20" as="geometry" />
        </mxCell>
        <mxCell id="tZKbt4fKLGaMZ1IonJi8-487" value="M" style="fillColor=#23445D;strokeColor=#FFFFFF;strokeWidth=2;fontColor=#FFFFFF;fontStyle=1" parent="1" vertex="1">
          <mxGeometry x="880.0000000000018" y="340.00000000000006" width="20" height="20" as="geometry" />
        </mxCell>
        <mxCell id="tZKbt4fKLGaMZ1IonJi8-488" value="T" style="fillColor=#23445D;strokeColor=#FFFFFF;strokeWidth=2;fontColor=#FFFFFF;fontStyle=1" parent="1" vertex="1">
          <mxGeometry x="900.0000000000018" y="340.00000000000006" width="20" height="20" as="geometry" />
        </mxCell>
        <mxCell id="tZKbt4fKLGaMZ1IonJi8-489" value="W" style="fillColor=#23445D;strokeColor=#FFFFFF;strokeWidth=2;fontColor=#FFFFFF;fontStyle=1" parent="1" vertex="1">
          <mxGeometry x="920.0000000000018" y="340.00000000000006" width="20" height="20" as="geometry" />
        </mxCell>
        <mxCell id="tZKbt4fKLGaMZ1IonJi8-490" value="T" style="fillColor=#23445D;strokeColor=#FFFFFF;strokeWidth=2;fontColor=#FFFFFF;fontStyle=1" parent="1" vertex="1">
          <mxGeometry x="940.0000000000018" y="340.00000000000006" width="20" height="20" as="geometry" />
        </mxCell>
        <mxCell id="tZKbt4fKLGaMZ1IonJi8-491" value="F" style="fillColor=#23445D;strokeColor=#FFFFFF;strokeWidth=2;fontColor=#FFFFFF;fontStyle=1" parent="1" vertex="1">
          <mxGeometry x="960.0000000000016" y="340.00000000000006" width="20" height="20" as="geometry" />
        </mxCell>
        <mxCell id="tZKbt4fKLGaMZ1IonJi8-492" value="S" style="fillColor=#23445D;strokeColor=#FFFFFF;strokeWidth=2;fontColor=#FFFFFF;fontStyle=1" parent="1" vertex="1">
          <mxGeometry x="980.0000000000016" y="340.00000000000006" width="20" height="20" as="geometry" />
        </mxCell>
        <mxCell id="tZKbt4fKLGaMZ1IonJi8-493" value="S" style="fillColor=#23445D;strokeColor=#FFFFFF;strokeWidth=2;fontColor=#FFFFFF;fontStyle=1" parent="1" vertex="1">
          <mxGeometry x="1000.0000000000016" y="340.00000000000006" width="20" height="20" as="geometry" />
        </mxCell>
        <mxCell id="tZKbt4fKLGaMZ1IonJi8-494" value="January 6" style="fillColor=#23445D;strokeColor=#FFFFFF;strokeWidth=2;fontColor=#FFFFFF;fontStyle=1" parent="1" vertex="1">
          <mxGeometry x="1020.0000000000018" y="320.00000000000006" width="140" height="20" as="geometry" />
        </mxCell>
        <mxCell id="tZKbt4fKLGaMZ1IonJi8-495" value="M" style="fillColor=#23445D;strokeColor=#FFFFFF;strokeWidth=2;fontColor=#FFFFFF;fontStyle=1" parent="1" vertex="1">
          <mxGeometry x="1020.0000000000018" y="340.00000000000006" width="20" height="20" as="geometry" />
        </mxCell>
        <mxCell id="tZKbt4fKLGaMZ1IonJi8-496" value="T" style="fillColor=#23445D;strokeColor=#FFFFFF;strokeWidth=2;fontColor=#FFFFFF;fontStyle=1" parent="1" vertex="1">
          <mxGeometry x="1040.0000000000018" y="340.00000000000006" width="20" height="20" as="geometry" />
        </mxCell>
        <mxCell id="tZKbt4fKLGaMZ1IonJi8-497" value="W" style="fillColor=#23445D;strokeColor=#FFFFFF;strokeWidth=2;fontColor=#FFFFFF;fontStyle=1" parent="1" vertex="1">
          <mxGeometry x="1060.0000000000018" y="340.00000000000006" width="20" height="20" as="geometry" />
        </mxCell>
        <mxCell id="tZKbt4fKLGaMZ1IonJi8-498" value="T" style="fillColor=#23445D;strokeColor=#FFFFFF;strokeWidth=2;fontColor=#FFFFFF;fontStyle=1" parent="1" vertex="1">
          <mxGeometry x="1080.0000000000018" y="340.00000000000006" width="20" height="20" as="geometry" />
        </mxCell>
        <mxCell id="tZKbt4fKLGaMZ1IonJi8-499" value="F" style="fillColor=#23445D;strokeColor=#FFFFFF;strokeWidth=2;fontColor=#FFFFFF;fontStyle=1" parent="1" vertex="1">
          <mxGeometry x="1100.0000000000016" y="340" width="20" height="20" as="geometry" />
        </mxCell>
        <mxCell id="tZKbt4fKLGaMZ1IonJi8-500" value="S" style="fillColor=#23445D;strokeColor=#FFFFFF;strokeWidth=2;fontColor=#FFFFFF;fontStyle=1" parent="1" vertex="1">
          <mxGeometry x="1120.0000000000016" y="340" width="20" height="20" as="geometry" />
        </mxCell>
        <mxCell id="tZKbt4fKLGaMZ1IonJi8-501" value="S" style="fillColor=#23445D;strokeColor=#FFFFFF;strokeWidth=2;fontColor=#FFFFFF;fontStyle=1" parent="1" vertex="1">
          <mxGeometry x="1140.0000000000016" y="340" width="20" height="20" as="geometry" />
        </mxCell>
        <mxCell id="tZKbt4fKLGaMZ1IonJi8-502" value="January 13" style="fillColor=#23445D;strokeColor=#FFFFFF;strokeWidth=2;fontColor=#FFFFFF;fontStyle=1" parent="1" vertex="1">
          <mxGeometry x="1160.0000000000018" y="320.00000000000006" width="140" height="20" as="geometry" />
        </mxCell>
        <mxCell id="tZKbt4fKLGaMZ1IonJi8-503" value="M" style="fillColor=#23445D;strokeColor=#FFFFFF;strokeWidth=2;fontColor=#FFFFFF;fontStyle=1" parent="1" vertex="1">
          <mxGeometry x="1160.0000000000018" y="340.00000000000006" width="20" height="20" as="geometry" />
        </mxCell>
        <mxCell id="tZKbt4fKLGaMZ1IonJi8-504" value="T" style="fillColor=#23445D;strokeColor=#FFFFFF;strokeWidth=2;fontColor=#FFFFFF;fontStyle=1" parent="1" vertex="1">
          <mxGeometry x="1180.0000000000018" y="340.00000000000006" width="20" height="20" as="geometry" />
        </mxCell>
        <mxCell id="tZKbt4fKLGaMZ1IonJi8-505" value="W" style="fillColor=#23445D;strokeColor=#FFFFFF;strokeWidth=2;fontColor=#FFFFFF;fontStyle=1" parent="1" vertex="1">
          <mxGeometry x="1200.0000000000018" y="340.00000000000006" width="20" height="20" as="geometry" />
        </mxCell>
        <mxCell id="tZKbt4fKLGaMZ1IonJi8-506" value="T" style="fillColor=#23445D;strokeColor=#FFFFFF;strokeWidth=2;fontColor=#FFFFFF;fontStyle=1" parent="1" vertex="1">
          <mxGeometry x="1220.0000000000018" y="340.00000000000006" width="20" height="20" as="geometry" />
        </mxCell>
        <mxCell id="tZKbt4fKLGaMZ1IonJi8-507" value="F" style="fillColor=#23445D;strokeColor=#FFFFFF;strokeWidth=2;fontColor=#FFFFFF;fontStyle=1" parent="1" vertex="1">
          <mxGeometry x="1240.0000000000016" y="340" width="20" height="20" as="geometry" />
        </mxCell>
        <mxCell id="tZKbt4fKLGaMZ1IonJi8-508" value="S" style="fillColor=#23445D;strokeColor=#FFFFFF;strokeWidth=2;fontColor=#FFFFFF;fontStyle=1" parent="1" vertex="1">
          <mxGeometry x="1260.0000000000016" y="340" width="20" height="20" as="geometry" />
        </mxCell>
        <mxCell id="tZKbt4fKLGaMZ1IonJi8-509" value="S" style="fillColor=#23445D;strokeColor=#FFFFFF;strokeWidth=2;fontColor=#FFFFFF;fontStyle=1" parent="1" vertex="1">
          <mxGeometry x="1280.0000000000016" y="340" width="20" height="20" as="geometry" />
        </mxCell>
        <mxCell id="tZKbt4fKLGaMZ1IonJi8-510" value="January 20" style="fillColor=#23445D;strokeColor=#FFFFFF;strokeWidth=2;fontColor=#FFFFFF;fontStyle=1" parent="1" vertex="1">
          <mxGeometry x="1300.0000000000018" y="320" width="140" height="20" as="geometry" />
        </mxCell>
        <mxCell id="tZKbt4fKLGaMZ1IonJi8-511" value="M" style="fillColor=#23445D;strokeColor=#FFFFFF;strokeWidth=2;fontColor=#FFFFFF;fontStyle=1" parent="1" vertex="1">
          <mxGeometry x="1300.0000000000018" y="340" width="20" height="20" as="geometry" />
        </mxCell>
        <mxCell id="tZKbt4fKLGaMZ1IonJi8-512" value="T" style="fillColor=#23445D;strokeColor=#FFFFFF;strokeWidth=2;fontColor=#FFFFFF;fontStyle=1" parent="1" vertex="1">
          <mxGeometry x="1320.0000000000018" y="340" width="20" height="20" as="geometry" />
        </mxCell>
        <mxCell id="tZKbt4fKLGaMZ1IonJi8-513" value="W" style="fillColor=#23445D;strokeColor=#FFFFFF;strokeWidth=2;fontColor=#FFFFFF;fontStyle=1" parent="1" vertex="1">
          <mxGeometry x="1340.0000000000018" y="340" width="20" height="20" as="geometry" />
        </mxCell>
        <mxCell id="tZKbt4fKLGaMZ1IonJi8-514" value="T" style="fillColor=#23445D;strokeColor=#FFFFFF;strokeWidth=2;fontColor=#FFFFFF;fontStyle=1" parent="1" vertex="1">
          <mxGeometry x="1360.0000000000018" y="340" width="20" height="20" as="geometry" />
        </mxCell>
        <mxCell id="tZKbt4fKLGaMZ1IonJi8-515" value="F" style="fillColor=#23445D;strokeColor=#FFFFFF;strokeWidth=2;fontColor=#FFFFFF;fontStyle=1" parent="1" vertex="1">
          <mxGeometry x="1380.0000000000016" y="340" width="20" height="20" as="geometry" />
        </mxCell>
        <mxCell id="tZKbt4fKLGaMZ1IonJi8-516" value="S" style="fillColor=#23445D;strokeColor=#FFFFFF;strokeWidth=2;fontColor=#FFFFFF;fontStyle=1" parent="1" vertex="1">
          <mxGeometry x="1400.0000000000016" y="340" width="20" height="20" as="geometry" />
        </mxCell>
        <mxCell id="tZKbt4fKLGaMZ1IonJi8-517" value="S" style="fillColor=#23445D;strokeColor=#FFFFFF;strokeWidth=2;fontColor=#FFFFFF;fontStyle=1" parent="1" vertex="1">
          <mxGeometry x="1420.0000000000016" y="340" width="20" height="20" as="geometry" />
        </mxCell>
        <mxCell id="256" value="" style="shape=mxgraph.flowchart.process;fillColor=#AE4132;strokeColor=#000000;strokeWidth=2;opacity=50" parent="1" vertex="1">
          <mxGeometry x="1300" y="300" width="140" height="20" as="geometry" />
        </mxCell>
        <mxCell id="tZKbt4fKLGaMZ1IonJi8-518" value="4" style="strokeColor=#DEEDFF;fillColor=#CCE5FF" parent="1" vertex="1">
          <mxGeometry x="3.694822225952521e-13" y="360.000000000001" width="40" height="20" as="geometry" />
        </mxCell>
        <mxCell id="tZKbt4fKLGaMZ1IonJi8-519" value="Prepare for a comparative experiment" style="align=left;strokeColor=#DEEDFF;fillColor=#CCE5FF" parent="1" vertex="1">
          <mxGeometry x="40.00000000000037" y="360.000000000001" width="319.99999999999966" height="20.00000000000003" as="geometry" />
        </mxCell>
        <mxCell id="tZKbt4fKLGaMZ1IonJi8-520" value="21 days" style="strokeColor=#DEEDFF;fillColor=#CCE5FF" parent="1" vertex="1">
          <mxGeometry x="360.0000000000021" y="360.0000000000009" width="80.00000000000028" height="20" as="geometry" />
        </mxCell>
        <mxCell id="tZKbt4fKLGaMZ1IonJi8-521" value="24.12.09" style="strokeColor=#DEEDFF;fillColor=#CCE5FF" parent="1" vertex="1">
          <mxGeometry x="440.0000000000025" y="360.0000000000009" width="80.00000000000028" height="20" as="geometry" />
        </mxCell>
        <mxCell id="tZKbt4fKLGaMZ1IonJi8-522" value="24.12.30" style="strokeColor=#DEEDFF;fillColor=#CCE5FF" parent="1" vertex="1">
          <mxGeometry x="520.0000000000018" y="360.00000000000125" width="80.00000000000028" height="20" as="geometry" />
        </mxCell>
        <mxCell id="tZKbt4fKLGaMZ1IonJi8-523" value="1" style="strokeColor=#DEEDFF" parent="1" vertex="1">
          <mxGeometry x="0.5000000000013927" y="380.00000000000296" width="40" height="20" as="geometry" />
        </mxCell>
        <mxCell id="tZKbt4fKLGaMZ1IonJi8-524" value="Collection comparison model" style="align=left;strokeColor=#DEEDFF" parent="1" vertex="1">
          <mxGeometry x="40.50000000000139" y="380.00000000000296" width="319.99999999999864" height="20" as="geometry" />
        </mxCell>
        <mxCell id="tZKbt4fKLGaMZ1IonJi8-525" value="7 days" style="strokeColor=#DEEDFF" parent="1" vertex="1">
          <mxGeometry x="360.5000000000031" y="380.00000000000296" width="80.00000000000028" height="20" as="geometry" />
        </mxCell>
        <mxCell id="tZKbt4fKLGaMZ1IonJi8-526" value="24.12.09" style="strokeColor=#DEEDFF" parent="1" vertex="1">
          <mxGeometry x="440.5000000000034" y="380.00000000000296" width="80.00000000000028" height="20" as="geometry" />
        </mxCell>
        <mxCell id="tZKbt4fKLGaMZ1IonJi8-527" value="24.12.16" style="strokeColor=#DEEDFF" parent="1" vertex="1">
          <mxGeometry x="520.500000000003" y="380.0000000000032" width="80.00000000000028" height="20" as="geometry" />
        </mxCell>
        <mxCell id="tZKbt4fKLGaMZ1IonJi8-528" value="2" style="strokeColor=#DEEDFF" parent="1" vertex="1">
          <mxGeometry x="0.5000000000011084" y="400.0000000000034" width="40" height="20" as="geometry" />
        </mxCell>
        <mxCell id="tZKbt4fKLGaMZ1IonJi8-529" value="Collect image segmentation data" style="align=left;strokeColor=#DEEDFF" parent="1" vertex="1">
          <mxGeometry x="40.50000000000111" y="400.0000000000034" width="319.99999999999886" height="20" as="geometry" />
        </mxCell>
        <mxCell id="tZKbt4fKLGaMZ1IonJi8-530" value="5 days" style="strokeColor=#DEEDFF" parent="1" vertex="1">
          <mxGeometry x="360.50000000000284" y="400.0000000000033" width="80.00000000000028" height="20" as="geometry" />
        </mxCell>
        <mxCell id="tZKbt4fKLGaMZ1IonJi8-531" value="24.12.16" style="strokeColor=#DEEDFF" parent="1" vertex="1">
          <mxGeometry x="440.5000000000032" y="400.0000000000033" width="80.00000000000028" height="20" as="geometry" />
        </mxCell>
        <mxCell id="tZKbt4fKLGaMZ1IonJi8-532" value="24.12.20" style="strokeColor=#DEEDFF" parent="1" vertex="1">
          <mxGeometry x="520.5000000000026" y="400.00000000000364" width="80.00000000000028" height="20" as="geometry" />
        </mxCell>
        <mxCell id="tZKbt4fKLGaMZ1IonJi8-533" value="3" style="strokeColor=#DEEDFF" parent="1" vertex="1">
          <mxGeometry x="0.5000000000010232" y="420.0000000000034" width="40" height="20" as="geometry" />
        </mxCell>
        <mxCell id="tZKbt4fKLGaMZ1IonJi8-534" value="Run comparison experiment" style="align=left;strokeColor=#DEEDFF" parent="1" vertex="1">
          <mxGeometry x="40.50000000000102" y="420.0000000000034" width="319.999999999999" height="20" as="geometry" />
        </mxCell>
        <mxCell id="tZKbt4fKLGaMZ1IonJi8-535" value="10 days" style="strokeColor=#DEEDFF" parent="1" vertex="1">
          <mxGeometry x="360.5000000000028" y="420.0000000000033" width="80.00000000000028" height="20" as="geometry" />
        </mxCell>
        <mxCell id="tZKbt4fKLGaMZ1IonJi8-536" value="24.12.20" style="strokeColor=#DEEDFF" parent="1" vertex="1">
          <mxGeometry x="440.5" y="420" width="80" height="20" as="geometry" />
        </mxCell>
        <mxCell id="tZKbt4fKLGaMZ1IonJi8-537" value="24.12.30" style="strokeColor=#DEEDFF" parent="1" vertex="1">
          <mxGeometry x="520.5000000000026" y="420.00000000000364" width="80.00000000000028" height="20" as="geometry" />
        </mxCell>
        <mxCell id="tZKbt4fKLGaMZ1IonJi8-543" value="" style="shape=mxgraph.flowchart.process;fillColor=#AE4132;strokeColor=#000000;strokeWidth=2;opacity=100" parent="1" vertex="1">
          <mxGeometry x="600.5" y="360" width="419.5" height="20" as="geometry" />
        </mxCell>
        <mxCell id="tZKbt4fKLGaMZ1IonJi8-544" value="5" style="strokeColor=#DEEDFF;fillColor=#CCE5FF" parent="1" vertex="1">
          <mxGeometry x="3.694822225952521e-13" y="440.000000000001" width="40" height="20" as="geometry" />
        </mxCell>
        <mxCell id="tZKbt4fKLGaMZ1IonJi8-545" value="Prepare for the final exam" style="align=left;strokeColor=#DEEDFF;fillColor=#CCE5FF" parent="1" vertex="1">
          <mxGeometry x="40.00000000000037" y="440.000000000001" width="319.99999999999966" height="20.00000000000003" as="geometry" />
        </mxCell>
        <mxCell id="tZKbt4fKLGaMZ1IonJi8-546" value="20 days" style="strokeColor=#DEEDFF;fillColor=#CCE5FF" parent="1" vertex="1">
          <mxGeometry x="360.0000000000021" y="440.0000000000009" width="80.00000000000028" height="20" as="geometry" />
        </mxCell>
        <mxCell id="tZKbt4fKLGaMZ1IonJi8-547" value="24.12.30" style="strokeColor=#DEEDFF;fillColor=#CCE5FF" parent="1" vertex="1">
          <mxGeometry x="440.0000000000025" y="440.0000000000009" width="80.00000000000028" height="20" as="geometry" />
        </mxCell>
        <mxCell id="tZKbt4fKLGaMZ1IonJi8-548" value="25.01.27" style="strokeColor=#DEEDFF;fillColor=#CCE5FF" parent="1" vertex="1">
          <mxGeometry x="520.0000000000018" y="440.00000000000125" width="80.00000000000028" height="20" as="geometry" />
        </mxCell>
        <mxCell id="tZKbt4fKLGaMZ1IonJi8-549" value="" style="shape=mxgraph.flowchart.process;fillColor=#AE4132;strokeColor=#000000;strokeWidth=2;opacity=100" parent="1" vertex="1">
          <mxGeometry x="1020.5" y="440" width="419.5" height="20" as="geometry" />
        </mxCell>
        <mxCell id="tZKbt4fKLGaMZ1IonJi8-550" value="6" style="strokeColor=#DEEDFF;fillColor=#CCE5FF" parent="1" vertex="1">
          <mxGeometry x="3.694822225952521e-13" y="460.000000000001" width="40" height="20" as="geometry" />
        </mxCell>
        <mxCell id="tZKbt4fKLGaMZ1IonJi8-551" value="Spring Festival Holiday" style="align=left;strokeColor=#DEEDFF;fillColor=#CCE5FF" parent="1" vertex="1">
          <mxGeometry x="40.00000000000037" y="460.000000000001" width="319.99999999999966" height="20.00000000000003" as="geometry" />
        </mxCell>
        <mxCell id="tZKbt4fKLGaMZ1IonJi8-552" value="20 days" style="strokeColor=#DEEDFF;fillColor=#CCE5FF" parent="1" vertex="1">
          <mxGeometry x="360.0000000000021" y="460.0000000000009" width="80.00000000000028" height="20" as="geometry" />
        </mxCell>
        <mxCell id="tZKbt4fKLGaMZ1IonJi8-553" value="25.01.27" style="strokeColor=#DEEDFF;fillColor=#CCE5FF" parent="1" vertex="1">
          <mxGeometry x="440.0000000000025" y="460.0000000000009" width="80.00000000000028" height="20" as="geometry" />
        </mxCell>
        <mxCell id="tZKbt4fKLGaMZ1IonJi8-554" value="25.02.10" style="strokeColor=#DEEDFF;fillColor=#CCE5FF" parent="1" vertex="1">
          <mxGeometry x="520.0000000000018" y="460.00000000000125" width="80.00000000000028" height="20" as="geometry" />
        </mxCell>
        <mxCell id="tZKbt4fKLGaMZ1IonJi8-555" value="Task Name" style="fillColor=#23445D;strokeColor=#FFFFFF;strokeWidth=2;fontColor=#FFFFFF;fontStyle=1" parent="1" vertex="1">
          <mxGeometry x="40.5" y="480" width="320" height="40" as="geometry" />
        </mxCell>
        <mxCell id="tZKbt4fKLGaMZ1IonJi8-556" value="" style="fillColor=#23445D;strokeColor=#FFFFFF;strokeWidth=2;fontColor=#FFFFFF;fontStyle=1" parent="1" vertex="1">
          <mxGeometry x="0.5" y="480" width="40" height="40" as="geometry" />
        </mxCell>
        <mxCell id="tZKbt4fKLGaMZ1IonJi8-557" value="February 10" style="fillColor=#23445D;strokeColor=#FFFFFF;strokeWidth=2;fontColor=#FFFFFF;fontStyle=1" parent="1" vertex="1">
          <mxGeometry x="600.5000000000018" y="480.0000000000001" width="140" height="20" as="geometry" />
        </mxCell>
        <mxCell id="tZKbt4fKLGaMZ1IonJi8-558" value="M" style="fillColor=#23445D;strokeColor=#FFFFFF;strokeWidth=2;fontColor=#FFFFFF;fontStyle=1" parent="1" vertex="1">
          <mxGeometry x="600.5000000000018" y="500.0000000000001" width="20" height="20" as="geometry" />
        </mxCell>
        <mxCell id="tZKbt4fKLGaMZ1IonJi8-559" value="T" style="fillColor=#23445D;strokeColor=#FFFFFF;strokeWidth=2;fontColor=#FFFFFF;fontStyle=1" parent="1" vertex="1">
          <mxGeometry x="620.5000000000018" y="500.0000000000001" width="20" height="20" as="geometry" />
        </mxCell>
        <mxCell id="tZKbt4fKLGaMZ1IonJi8-560" value="W" style="fillColor=#23445D;strokeColor=#FFFFFF;strokeWidth=2;fontColor=#FFFFFF;fontStyle=1" parent="1" vertex="1">
          <mxGeometry x="640.5000000000018" y="500.0000000000001" width="20" height="20" as="geometry" />
        </mxCell>
        <mxCell id="tZKbt4fKLGaMZ1IonJi8-561" value="T" style="fillColor=#23445D;strokeColor=#FFFFFF;strokeWidth=2;fontColor=#FFFFFF;fontStyle=1" parent="1" vertex="1">
          <mxGeometry x="660.5000000000018" y="500.0000000000001" width="20" height="20" as="geometry" />
        </mxCell>
        <mxCell id="tZKbt4fKLGaMZ1IonJi8-562" value="F" style="fillColor=#23445D;strokeColor=#FFFFFF;strokeWidth=2;fontColor=#FFFFFF;fontStyle=1" parent="1" vertex="1">
          <mxGeometry x="680.5000000000016" y="500.0000000000001" width="20" height="20" as="geometry" />
        </mxCell>
        <mxCell id="tZKbt4fKLGaMZ1IonJi8-563" value="S" style="fillColor=#23445D;strokeColor=#FFFFFF;strokeWidth=2;fontColor=#FFFFFF;fontStyle=1" parent="1" vertex="1">
          <mxGeometry x="700.5000000000016" y="500.0000000000001" width="20" height="20" as="geometry" />
        </mxCell>
        <mxCell id="tZKbt4fKLGaMZ1IonJi8-564" value="S" style="fillColor=#23445D;strokeColor=#FFFFFF;strokeWidth=2;fontColor=#FFFFFF;fontStyle=1" parent="1" vertex="1">
          <mxGeometry x="720.5000000000016" y="500.0000000000001" width="20" height="20" as="geometry" />
        </mxCell>
        <mxCell id="tZKbt4fKLGaMZ1IonJi8-565" value="Duration" style="fillColor=#23445D;strokeColor=#FFFFFF;strokeWidth=2;fontColor=#FFFFFF;fontStyle=1" parent="1" vertex="1">
          <mxGeometry x="360.50000000000176" y="480.00000000000006" width="80.00000000000006" height="40.00000000000001" as="geometry" />
        </mxCell>
        <mxCell id="tZKbt4fKLGaMZ1IonJi8-566" value="Start" style="fillColor=#23445D;strokeColor=#FFFFFF;strokeWidth=2;fontColor=#FFFFFF;fontStyle=1" parent="1" vertex="1">
          <mxGeometry x="440.5000000000018" y="480.00000000000006" width="80.00000000000006" height="40.00000000000001" as="geometry" />
        </mxCell>
        <mxCell id="tZKbt4fKLGaMZ1IonJi8-567" value="ETA" style="fillColor=#23445D;strokeColor=#FFFFFF;strokeWidth=2;fontColor=#FFFFFF;fontStyle=1" parent="1" vertex="1">
          <mxGeometry x="520.5000000000019" y="480.0000000000001" width="80.00000000000006" height="40.00000000000001" as="geometry" />
        </mxCell>
        <mxCell id="tZKbt4fKLGaMZ1IonJi8-568" value="February 17" style="fillColor=#23445D;strokeColor=#FFFFFF;strokeWidth=2;fontColor=#FFFFFF;fontStyle=1" parent="1" vertex="1">
          <mxGeometry x="740.5000000000018" y="480.0000000000001" width="140" height="20" as="geometry" />
        </mxCell>
        <mxCell id="tZKbt4fKLGaMZ1IonJi8-569" value="M" style="fillColor=#23445D;strokeColor=#FFFFFF;strokeWidth=2;fontColor=#FFFFFF;fontStyle=1" parent="1" vertex="1">
          <mxGeometry x="740.5000000000018" y="500.0000000000001" width="20" height="20" as="geometry" />
        </mxCell>
        <mxCell id="tZKbt4fKLGaMZ1IonJi8-570" value="T" style="fillColor=#23445D;strokeColor=#FFFFFF;strokeWidth=2;fontColor=#FFFFFF;fontStyle=1" parent="1" vertex="1">
          <mxGeometry x="760.5000000000018" y="500.0000000000001" width="20" height="20" as="geometry" />
        </mxCell>
        <mxCell id="tZKbt4fKLGaMZ1IonJi8-571" value="W" style="fillColor=#23445D;strokeColor=#FFFFFF;strokeWidth=2;fontColor=#FFFFFF;fontStyle=1" parent="1" vertex="1">
          <mxGeometry x="780.5000000000018" y="500.0000000000001" width="20" height="20" as="geometry" />
        </mxCell>
        <mxCell id="tZKbt4fKLGaMZ1IonJi8-572" value="T" style="fillColor=#23445D;strokeColor=#FFFFFF;strokeWidth=2;fontColor=#FFFFFF;fontStyle=1" parent="1" vertex="1">
          <mxGeometry x="800.5000000000018" y="500.0000000000001" width="20" height="20" as="geometry" />
        </mxCell>
        <mxCell id="tZKbt4fKLGaMZ1IonJi8-573" value="F" style="fillColor=#23445D;strokeColor=#FFFFFF;strokeWidth=2;fontColor=#FFFFFF;fontStyle=1" parent="1" vertex="1">
          <mxGeometry x="820.5000000000016" y="500.0000000000001" width="20" height="20" as="geometry" />
        </mxCell>
        <mxCell id="tZKbt4fKLGaMZ1IonJi8-574" value="S" style="fillColor=#23445D;strokeColor=#FFFFFF;strokeWidth=2;fontColor=#FFFFFF;fontStyle=1" parent="1" vertex="1">
          <mxGeometry x="840.5000000000016" y="500.0000000000001" width="20" height="20" as="geometry" />
        </mxCell>
        <mxCell id="tZKbt4fKLGaMZ1IonJi8-575" value="S" style="fillColor=#23445D;strokeColor=#FFFFFF;strokeWidth=2;fontColor=#FFFFFF;fontStyle=1" parent="1" vertex="1">
          <mxGeometry x="860.5000000000016" y="500.0000000000001" width="20" height="20" as="geometry" />
        </mxCell>
        <mxCell id="tZKbt4fKLGaMZ1IonJi8-576" value="February 24" style="fillColor=#23445D;strokeColor=#FFFFFF;strokeWidth=2;fontColor=#FFFFFF;fontStyle=1" parent="1" vertex="1">
          <mxGeometry x="880.5000000000018" y="480.00000000000006" width="140" height="20" as="geometry" />
        </mxCell>
        <mxCell id="tZKbt4fKLGaMZ1IonJi8-577" value="M" style="fillColor=#23445D;strokeColor=#FFFFFF;strokeWidth=2;fontColor=#FFFFFF;fontStyle=1" parent="1" vertex="1">
          <mxGeometry x="880.5000000000018" y="500.00000000000006" width="20" height="20" as="geometry" />
        </mxCell>
        <mxCell id="tZKbt4fKLGaMZ1IonJi8-578" value="T" style="fillColor=#23445D;strokeColor=#FFFFFF;strokeWidth=2;fontColor=#FFFFFF;fontStyle=1" parent="1" vertex="1">
          <mxGeometry x="900.5000000000018" y="500.00000000000006" width="20" height="20" as="geometry" />
        </mxCell>
        <mxCell id="tZKbt4fKLGaMZ1IonJi8-579" value="W" style="fillColor=#23445D;strokeColor=#FFFFFF;strokeWidth=2;fontColor=#FFFFFF;fontStyle=1" parent="1" vertex="1">
          <mxGeometry x="920.5000000000018" y="500.00000000000006" width="20" height="20" as="geometry" />
        </mxCell>
        <mxCell id="tZKbt4fKLGaMZ1IonJi8-580" value="T" style="fillColor=#23445D;strokeColor=#FFFFFF;strokeWidth=2;fontColor=#FFFFFF;fontStyle=1" parent="1" vertex="1">
          <mxGeometry x="940.5000000000018" y="500.00000000000006" width="20" height="20" as="geometry" />
        </mxCell>
        <mxCell id="tZKbt4fKLGaMZ1IonJi8-581" value="F" style="fillColor=#23445D;strokeColor=#FFFFFF;strokeWidth=2;fontColor=#FFFFFF;fontStyle=1" parent="1" vertex="1">
          <mxGeometry x="960.5000000000016" y="500.00000000000006" width="20" height="20" as="geometry" />
        </mxCell>
        <mxCell id="tZKbt4fKLGaMZ1IonJi8-582" value="S" style="fillColor=#23445D;strokeColor=#FFFFFF;strokeWidth=2;fontColor=#FFFFFF;fontStyle=1" parent="1" vertex="1">
          <mxGeometry x="980.5000000000016" y="500.00000000000006" width="20" height="20" as="geometry" />
        </mxCell>
        <mxCell id="tZKbt4fKLGaMZ1IonJi8-583" value="S" style="fillColor=#23445D;strokeColor=#FFFFFF;strokeWidth=2;fontColor=#FFFFFF;fontStyle=1" parent="1" vertex="1">
          <mxGeometry x="1000.5000000000016" y="500.00000000000006" width="20" height="20" as="geometry" />
        </mxCell>
        <mxCell id="tZKbt4fKLGaMZ1IonJi8-584" value="March 3" style="fillColor=#23445D;strokeColor=#FFFFFF;strokeWidth=2;fontColor=#FFFFFF;fontStyle=1" parent="1" vertex="1">
          <mxGeometry x="1020.5000000000018" y="480.00000000000006" width="140" height="20" as="geometry" />
        </mxCell>
        <mxCell id="tZKbt4fKLGaMZ1IonJi8-585" value="M" style="fillColor=#23445D;strokeColor=#FFFFFF;strokeWidth=2;fontColor=#FFFFFF;fontStyle=1" parent="1" vertex="1">
          <mxGeometry x="1020.5000000000018" y="500.00000000000006" width="20" height="20" as="geometry" />
        </mxCell>
        <mxCell id="tZKbt4fKLGaMZ1IonJi8-586" value="T" style="fillColor=#23445D;strokeColor=#FFFFFF;strokeWidth=2;fontColor=#FFFFFF;fontStyle=1" parent="1" vertex="1">
          <mxGeometry x="1040.5000000000018" y="500.00000000000006" width="20" height="20" as="geometry" />
        </mxCell>
        <mxCell id="tZKbt4fKLGaMZ1IonJi8-587" value="W" style="fillColor=#23445D;strokeColor=#FFFFFF;strokeWidth=2;fontColor=#FFFFFF;fontStyle=1" parent="1" vertex="1">
          <mxGeometry x="1060.5000000000018" y="500.00000000000006" width="20" height="20" as="geometry" />
        </mxCell>
        <mxCell id="tZKbt4fKLGaMZ1IonJi8-588" value="T" style="fillColor=#23445D;strokeColor=#FFFFFF;strokeWidth=2;fontColor=#FFFFFF;fontStyle=1" parent="1" vertex="1">
          <mxGeometry x="1080.5000000000018" y="500.00000000000006" width="20" height="20" as="geometry" />
        </mxCell>
        <mxCell id="tZKbt4fKLGaMZ1IonJi8-589" value="F" style="fillColor=#23445D;strokeColor=#FFFFFF;strokeWidth=2;fontColor=#FFFFFF;fontStyle=1" parent="1" vertex="1">
          <mxGeometry x="1100.5000000000016" y="500" width="20" height="20" as="geometry" />
        </mxCell>
        <mxCell id="tZKbt4fKLGaMZ1IonJi8-590" value="S" style="fillColor=#23445D;strokeColor=#FFFFFF;strokeWidth=2;fontColor=#FFFFFF;fontStyle=1" parent="1" vertex="1">
          <mxGeometry x="1120.5000000000016" y="500" width="20" height="20" as="geometry" />
        </mxCell>
        <mxCell id="tZKbt4fKLGaMZ1IonJi8-591" value="S" style="fillColor=#23445D;strokeColor=#FFFFFF;strokeWidth=2;fontColor=#FFFFFF;fontStyle=1" parent="1" vertex="1">
          <mxGeometry x="1140.5000000000016" y="500" width="20" height="20" as="geometry" />
        </mxCell>
        <mxCell id="tZKbt4fKLGaMZ1IonJi8-592" value="March 10" style="fillColor=#23445D;strokeColor=#FFFFFF;strokeWidth=2;fontColor=#FFFFFF;fontStyle=1" parent="1" vertex="1">
          <mxGeometry x="1160.5000000000018" y="480.00000000000006" width="140" height="20" as="geometry" />
        </mxCell>
        <mxCell id="tZKbt4fKLGaMZ1IonJi8-593" value="M" style="fillColor=#23445D;strokeColor=#FFFFFF;strokeWidth=2;fontColor=#FFFFFF;fontStyle=1" parent="1" vertex="1">
          <mxGeometry x="1160.5000000000018" y="500.00000000000006" width="20" height="20" as="geometry" />
        </mxCell>
        <mxCell id="tZKbt4fKLGaMZ1IonJi8-594" value="T" style="fillColor=#23445D;strokeColor=#FFFFFF;strokeWidth=2;fontColor=#FFFFFF;fontStyle=1" parent="1" vertex="1">
          <mxGeometry x="1180.5000000000018" y="500.00000000000006" width="20" height="20" as="geometry" />
        </mxCell>
        <mxCell id="tZKbt4fKLGaMZ1IonJi8-595" value="W" style="fillColor=#23445D;strokeColor=#FFFFFF;strokeWidth=2;fontColor=#FFFFFF;fontStyle=1" parent="1" vertex="1">
          <mxGeometry x="1200.5000000000018" y="500.00000000000006" width="20" height="20" as="geometry" />
        </mxCell>
        <mxCell id="tZKbt4fKLGaMZ1IonJi8-596" value="T" style="fillColor=#23445D;strokeColor=#FFFFFF;strokeWidth=2;fontColor=#FFFFFF;fontStyle=1" parent="1" vertex="1">
          <mxGeometry x="1220.5000000000018" y="500.00000000000006" width="20" height="20" as="geometry" />
        </mxCell>
        <mxCell id="tZKbt4fKLGaMZ1IonJi8-597" value="F" style="fillColor=#23445D;strokeColor=#FFFFFF;strokeWidth=2;fontColor=#FFFFFF;fontStyle=1" parent="1" vertex="1">
          <mxGeometry x="1240.5000000000016" y="500" width="20" height="20" as="geometry" />
        </mxCell>
        <mxCell id="tZKbt4fKLGaMZ1IonJi8-598" value="S" style="fillColor=#23445D;strokeColor=#FFFFFF;strokeWidth=2;fontColor=#FFFFFF;fontStyle=1" parent="1" vertex="1">
          <mxGeometry x="1260.5000000000016" y="500" width="20" height="20" as="geometry" />
        </mxCell>
        <mxCell id="tZKbt4fKLGaMZ1IonJi8-599" value="S" style="fillColor=#23445D;strokeColor=#FFFFFF;strokeWidth=2;fontColor=#FFFFFF;fontStyle=1" parent="1" vertex="1">
          <mxGeometry x="1280.5000000000016" y="500" width="20" height="20" as="geometry" />
        </mxCell>
        <mxCell id="tZKbt4fKLGaMZ1IonJi8-600" value="March 17" style="fillColor=#23445D;strokeColor=#FFFFFF;strokeWidth=2;fontColor=#FFFFFF;fontStyle=1" parent="1" vertex="1">
          <mxGeometry x="1300.5000000000018" y="480" width="140" height="20" as="geometry" />
        </mxCell>
        <mxCell id="tZKbt4fKLGaMZ1IonJi8-601" value="M" style="fillColor=#23445D;strokeColor=#FFFFFF;strokeWidth=2;fontColor=#FFFFFF;fontStyle=1" parent="1" vertex="1">
          <mxGeometry x="1300.5000000000018" y="500" width="20" height="20" as="geometry" />
        </mxCell>
        <mxCell id="tZKbt4fKLGaMZ1IonJi8-602" value="T" style="fillColor=#23445D;strokeColor=#FFFFFF;strokeWidth=2;fontColor=#FFFFFF;fontStyle=1" parent="1" vertex="1">
          <mxGeometry x="1320.5000000000018" y="500" width="20" height="20" as="geometry" />
        </mxCell>
        <mxCell id="tZKbt4fKLGaMZ1IonJi8-603" value="W" style="fillColor=#23445D;strokeColor=#FFFFFF;strokeWidth=2;fontColor=#FFFFFF;fontStyle=1" parent="1" vertex="1">
          <mxGeometry x="1340.5000000000018" y="500" width="20" height="20" as="geometry" />
        </mxCell>
        <mxCell id="tZKbt4fKLGaMZ1IonJi8-604" value="T" style="fillColor=#23445D;strokeColor=#FFFFFF;strokeWidth=2;fontColor=#FFFFFF;fontStyle=1" parent="1" vertex="1">
          <mxGeometry x="1360.5000000000018" y="500" width="20" height="20" as="geometry" />
        </mxCell>
        <mxCell id="tZKbt4fKLGaMZ1IonJi8-605" value="F" style="fillColor=#23445D;strokeColor=#FFFFFF;strokeWidth=2;fontColor=#FFFFFF;fontStyle=1" parent="1" vertex="1">
          <mxGeometry x="1380.5000000000016" y="500" width="20" height="20" as="geometry" />
        </mxCell>
        <mxCell id="tZKbt4fKLGaMZ1IonJi8-606" value="S" style="fillColor=#23445D;strokeColor=#FFFFFF;strokeWidth=2;fontColor=#FFFFFF;fontStyle=1" parent="1" vertex="1">
          <mxGeometry x="1400.5000000000016" y="500" width="20" height="20" as="geometry" />
        </mxCell>
        <mxCell id="tZKbt4fKLGaMZ1IonJi8-607" value="S" style="fillColor=#23445D;strokeColor=#FFFFFF;strokeWidth=2;fontColor=#FFFFFF;fontStyle=1" parent="1" vertex="1">
          <mxGeometry x="1420.5000000000016" y="500" width="20" height="20" as="geometry" />
        </mxCell>
        <mxCell id="tZKbt4fKLGaMZ1IonJi8-610" value="1" style="strokeColor=#DEEDFF" parent="1" vertex="1">
          <mxGeometry x="0.5000000000013927" y="540.000000000003" width="40" height="20" as="geometry" />
        </mxCell>
        <mxCell id="tZKbt4fKLGaMZ1IonJi8-611" value="Comparing experimental results" style="align=left;strokeColor=#DEEDFF" parent="1" vertex="1">
          <mxGeometry x="40.50000000000139" y="540.000000000003" width="319.99999999999864" height="20" as="geometry" />
        </mxCell>
        <mxCell id="tZKbt4fKLGaMZ1IonJi8-612" value="5 days" style="strokeColor=#DEEDFF" parent="1" vertex="1">
          <mxGeometry x="360.5000000000031" y="540.000000000003" width="80.00000000000028" height="20" as="geometry" />
        </mxCell>
        <mxCell id="tZKbt4fKLGaMZ1IonJi8-613" value="25.02.10" style="strokeColor=#DEEDFF" parent="1" vertex="1">
          <mxGeometry x="440.5000000000034" y="540.000000000003" width="80.00000000000028" height="20" as="geometry" />
        </mxCell>
        <mxCell id="tZKbt4fKLGaMZ1IonJi8-614" value="25.02.14" style="strokeColor=#DEEDFF" parent="1" vertex="1">
          <mxGeometry x="520.500000000003" y="540.0000000000032" width="80.00000000000028" height="20" as="geometry" />
        </mxCell>
        <mxCell id="tZKbt4fKLGaMZ1IonJi8-615" value="2" style="strokeColor=#DEEDFF" parent="1" vertex="1">
          <mxGeometry x="0.5000000000011084" y="560.0000000000034" width="40" height="20" as="geometry" />
        </mxCell>
        <mxCell id="tZKbt4fKLGaMZ1IonJi8-616" value="Insufficient Reflection Model" style="align=left;strokeColor=#DEEDFF" parent="1" vertex="1">
          <mxGeometry x="40.50000000000111" y="560.0000000000034" width="319.99999999999886" height="20" as="geometry" />
        </mxCell>
        <mxCell id="tZKbt4fKLGaMZ1IonJi8-617" value="5 days" style="strokeColor=#DEEDFF" parent="1" vertex="1">
          <mxGeometry x="360.50000000000284" y="560.0000000000033" width="80.00000000000028" height="20" as="geometry" />
        </mxCell>
        <mxCell id="tZKbt4fKLGaMZ1IonJi8-618" value="25.02.14" style="strokeColor=#DEEDFF" parent="1" vertex="1">
          <mxGeometry x="440.5000000000032" y="560.0000000000033" width="80.00000000000028" height="20" as="geometry" />
        </mxCell>
        <mxCell id="tZKbt4fKLGaMZ1IonJi8-619" value="25.02.19" style="strokeColor=#DEEDFF" parent="1" vertex="1">
          <mxGeometry x="520.5000000000026" y="560.0000000000036" width="80.00000000000028" height="20" as="geometry" />
        </mxCell>
        <mxCell id="tZKbt4fKLGaMZ1IonJi8-620" value="3" style="strokeColor=#DEEDFF" parent="1" vertex="1">
          <mxGeometry x="0.5000000000010232" y="580.0000000000034" width="40" height="20" as="geometry" />
        </mxCell>
        <mxCell id="tZKbt4fKLGaMZ1IonJi8-621" value="Retuning the model structure or parameters" style="align=left;strokeColor=#DEEDFF" parent="1" vertex="1">
          <mxGeometry x="40.50000000000102" y="580.0000000000034" width="319.999999999999" height="20" as="geometry" />
        </mxCell>
        <mxCell id="tZKbt4fKLGaMZ1IonJi8-622" value="4 days" style="strokeColor=#DEEDFF" parent="1" vertex="1">
          <mxGeometry x="360.5000000000028" y="580.0000000000033" width="80.00000000000028" height="20" as="geometry" />
        </mxCell>
        <mxCell id="tZKbt4fKLGaMZ1IonJi8-623" value="25.02.19" style="strokeColor=#DEEDFF" parent="1" vertex="1">
          <mxGeometry x="440.5" y="580" width="80" height="20" as="geometry" />
        </mxCell>
        <mxCell id="tZKbt4fKLGaMZ1IonJi8-624" value="25.02.24" style="strokeColor=#DEEDFF" parent="1" vertex="1">
          <mxGeometry x="520.5000000000026" y="580.0000000000036" width="80.00000000000028" height="20" as="geometry" />
        </mxCell>
        <mxCell id="tZKbt4fKLGaMZ1IonJi8-628" value="8" style="strokeColor=#DEEDFF;fillColor=#CCE5FF" parent="1" vertex="1">
          <mxGeometry x="-3.836930773104541e-13" y="600.000000000002" width="40" height="20" as="geometry" />
        </mxCell>
        <mxCell id="tZKbt4fKLGaMZ1IonJi8-629" value="Final report writing" style="align=left;strokeColor=#DEEDFF;fillColor=#CCE5FF" parent="1" vertex="1">
          <mxGeometry x="39.999999999999616" y="600.000000000002" width="320.0000000000004" height="20" as="geometry" />
        </mxCell>
        <mxCell id="tZKbt4fKLGaMZ1IonJi8-630" value="14 days" style="strokeColor=#DEEDFF;fillColor=#CCE5FF" parent="1" vertex="1">
          <mxGeometry x="360.00000000000136" y="600.000000000002" width="80.00000000000028" height="20" as="geometry" />
        </mxCell>
        <mxCell id="tZKbt4fKLGaMZ1IonJi8-631" value="25.02.24" style="strokeColor=#DEEDFF;fillColor=#CCE5FF" parent="1" vertex="1">
          <mxGeometry x="440.0000000000016" y="600.000000000002" width="80.00000000000028" height="20" as="geometry" />
        </mxCell>
        <mxCell id="tZKbt4fKLGaMZ1IonJi8-632" value="25.03.10" style="strokeColor=#DEEDFF;fillColor=#CCE5FF" parent="1" vertex="1">
          <mxGeometry x="520.0000000000011" y="600.0000000000023" width="80.00000000000028" height="20" as="geometry" />
        </mxCell>
        <mxCell id="tZKbt4fKLGaMZ1IonJi8-640" value="1" style="strokeColor=#DEEDFF" parent="1" vertex="1">
          <mxGeometry x="1.3926637620897964e-12" y="620.500000000003" width="40" height="20" as="geometry" />
        </mxCell>
        <mxCell id="tZKbt4fKLGaMZ1IonJi8-641" value="Complete the final report outline" style="align=left;strokeColor=#DEEDFF" parent="1" vertex="1">
          <mxGeometry x="40.00000000000139" y="620.500000000003" width="319.99999999999864" height="20" as="geometry" />
        </mxCell>
        <mxCell id="tZKbt4fKLGaMZ1IonJi8-642" value="5 days" style="strokeColor=#DEEDFF" parent="1" vertex="1">
          <mxGeometry x="360.0000000000031" y="620.500000000003" width="80.00000000000028" height="20" as="geometry" />
        </mxCell>
        <mxCell id="tZKbt4fKLGaMZ1IonJi8-643" value="25.02.24" style="strokeColor=#DEEDFF" parent="1" vertex="1">
          <mxGeometry x="440.0000000000034" y="620.500000000003" width="80.00000000000028" height="20" as="geometry" />
        </mxCell>
        <mxCell id="tZKbt4fKLGaMZ1IonJi8-644" value="25.02.28" style="strokeColor=#DEEDFF" parent="1" vertex="1">
          <mxGeometry x="520.000000000003" y="620.5000000000032" width="80.00000000000028" height="20" as="geometry" />
        </mxCell>
        <mxCell id="tZKbt4fKLGaMZ1IonJi8-645" value="2" style="strokeColor=#DEEDFF" parent="1" vertex="1">
          <mxGeometry x="1.1084466677857563e-12" y="640.5000000000034" width="40" height="20" as="geometry" />
        </mxCell>
        <mxCell id="tZKbt4fKLGaMZ1IonJi8-646" value="Finish the first draft" style="align=left;strokeColor=#DEEDFF" parent="1" vertex="1">
          <mxGeometry x="40.00000000000111" y="640.5000000000034" width="319.99999999999886" height="20" as="geometry" />
        </mxCell>
        <mxCell id="tZKbt4fKLGaMZ1IonJi8-647" value="5 days" style="strokeColor=#DEEDFF" parent="1" vertex="1">
          <mxGeometry x="360.00000000000284" y="640.5000000000033" width="80.00000000000028" height="20" as="geometry" />
        </mxCell>
        <mxCell id="tZKbt4fKLGaMZ1IonJi8-648" value="25.02.28" style="strokeColor=#DEEDFF" parent="1" vertex="1">
          <mxGeometry x="440.0000000000032" y="640.5000000000033" width="80.00000000000028" height="20" as="geometry" />
        </mxCell>
        <mxCell id="tZKbt4fKLGaMZ1IonJi8-649" value="25.03.05" style="strokeColor=#DEEDFF" parent="1" vertex="1">
          <mxGeometry x="520.0000000000026" y="640.5000000000036" width="80.00000000000028" height="20" as="geometry" />
        </mxCell>
        <mxCell id="tZKbt4fKLGaMZ1IonJi8-650" value="3" style="strokeColor=#DEEDFF" parent="1" vertex="1">
          <mxGeometry x="1.0231815394945443e-12" y="660.5000000000034" width="40" height="20" as="geometry" />
        </mxCell>
        <mxCell id="tZKbt4fKLGaMZ1IonJi8-651" value="Final review and submit" style="align=left;strokeColor=#DEEDFF" parent="1" vertex="1">
          <mxGeometry x="40.00000000000102" y="660.5000000000034" width="319.999999999999" height="20" as="geometry" />
        </mxCell>
        <mxCell id="tZKbt4fKLGaMZ1IonJi8-652" value="4 days" style="strokeColor=#DEEDFF" parent="1" vertex="1">
          <mxGeometry x="360.0000000000028" y="660.5000000000033" width="80.00000000000028" height="20" as="geometry" />
        </mxCell>
        <mxCell id="tZKbt4fKLGaMZ1IonJi8-653" value="25.03.05" style="strokeColor=#DEEDFF" parent="1" vertex="1">
          <mxGeometry x="440" y="660.5" width="80" height="20" as="geometry" />
        </mxCell>
        <mxCell id="tZKbt4fKLGaMZ1IonJi8-654" value="25.03.10" style="strokeColor=#DEEDFF" parent="1" vertex="1">
          <mxGeometry x="520.0000000000026" y="660.5000000000036" width="80.00000000000028" height="20" as="geometry" />
        </mxCell>
        <mxCell id="tZKbt4fKLGaMZ1IonJi8-625" value="" style="shape=mxgraph.flowchart.process;fillColor=#AE4132;strokeColor=#000000;strokeWidth=2;opacity=100" parent="1" vertex="1">
          <mxGeometry x="600.5" y="520" width="279.5" height="20" as="geometry" />
        </mxCell>
        <mxCell id="tZKbt4fKLGaMZ1IonJi8-626" value="" style="shape=mxgraph.flowchart.process;fillColor=#AE4132;strokeColor=none;strokeWidth=2;opacity=50" parent="1" vertex="1">
          <mxGeometry x="600" y="540" width="100" height="20" as="geometry" />
        </mxCell>
        <mxCell id="tZKbt4fKLGaMZ1IonJi8-627" value="" style="shape=mxgraph.arrows.bent_right_arrow;fillColor=#AE4132;strokeColor=none;strokeWidth=2;direction=south" parent="1" vertex="1">
          <mxGeometry x="700.0000000000024" y="550.000000000002" width="10.000000000000341" height="9.99999999999983" as="geometry" />
        </mxCell>
        <mxCell id="tZKbt4fKLGaMZ1IonJi8-633" value="" style="shape=mxgraph.flowchart.process;fillColor=#AE4132;strokeColor=none;strokeWidth=2;opacity=50" parent="1" vertex="1">
          <mxGeometry x="700" y="560" width="100" height="20" as="geometry" />
        </mxCell>
        <mxCell id="tZKbt4fKLGaMZ1IonJi8-637" value="" style="shape=mxgraph.flowchart.process;fillColor=#AE4132;strokeColor=none;strokeWidth=2;opacity=50" parent="1" vertex="1">
          <mxGeometry x="800" y="580" width="80" height="20" as="geometry" />
        </mxCell>
        <mxCell id="tZKbt4fKLGaMZ1IonJi8-638" value="" style="shape=mxgraph.arrows.bent_right_arrow;fillColor=#AE4132;strokeColor=none;strokeWidth=2;direction=south" parent="1" vertex="1">
          <mxGeometry x="800.0000000000024" y="570.000000000002" width="10.000000000000341" height="9.99999999999983" as="geometry" />
        </mxCell>
        <mxCell id="tZKbt4fKLGaMZ1IonJi8-639" value="" style="shape=mxgraph.flowchart.process;fillColor=#AE4132;strokeColor=#000000;strokeWidth=2;opacity=100" parent="1" vertex="1">
          <mxGeometry x="880.25" y="600.5" width="279.75" height="20" as="geometry" />
        </mxCell>
        <mxCell id="tZKbt4fKLGaMZ1IonJi8-655" value="" style="shape=mxgraph.flowchart.process;fillColor=#AE4132;strokeColor=none;strokeWidth=2;opacity=50" parent="1" vertex="1">
          <mxGeometry x="880" y="620.5" width="100" height="20" as="geometry" />
        </mxCell>
        <mxCell id="tZKbt4fKLGaMZ1IonJi8-656" value="" style="shape=mxgraph.arrows.bent_right_arrow;fillColor=#AE4132;strokeColor=none;strokeWidth=2;direction=south" parent="1" vertex="1">
          <mxGeometry x="980.0000000000024" y="630.500000000002" width="10.000000000000341" height="9.99999999999983" as="geometry" />
        </mxCell>
        <mxCell id="tZKbt4fKLGaMZ1IonJi8-657" value="" style="shape=mxgraph.flowchart.process;fillColor=#AE4132;strokeColor=none;strokeWidth=2;opacity=50" parent="1" vertex="1">
          <mxGeometry x="980.5" y="640.5" width="100" height="20" as="geometry" />
        </mxCell>
        <mxCell id="tZKbt4fKLGaMZ1IonJi8-658" value="" style="shape=mxgraph.flowchart.process;fillColor=#AE4132;strokeColor=none;strokeWidth=2;opacity=50" parent="1" vertex="1">
          <mxGeometry x="1080.5" y="660.5" width="79.5" height="20" as="geometry" />
        </mxCell>
        <mxCell id="tZKbt4fKLGaMZ1IonJi8-659" value="" style="shape=mxgraph.arrows.bent_right_arrow;fillColor=#AE4132;strokeColor=none;strokeWidth=2;direction=south" parent="1" vertex="1">
          <mxGeometry x="1080.5000000000023" y="650.500000000002" width="10.000000000000341" height="9.99999999999983" as="geometry" />
        </mxCell>
        <mxCell id="tZKbt4fKLGaMZ1IonJi8-661" value="8" style="strokeColor=#DEEDFF;fillColor=#CCE5FF" parent="1" vertex="1">
          <mxGeometry x="0.4999999999996163" y="680.500000000002" width="40" height="20" as="geometry" />
        </mxCell>
        <mxCell id="tZKbt4fKLGaMZ1IonJi8-662" value="Final review Project" style="align=left;strokeColor=#DEEDFF;fillColor=#CCE5FF" parent="1" vertex="1">
          <mxGeometry x="40.499999999999616" y="680.500000000002" width="320.0000000000004" height="20" as="geometry" />
        </mxCell>
        <mxCell id="tZKbt4fKLGaMZ1IonJi8-663" value="14 days" style="strokeColor=#DEEDFF;fillColor=#CCE5FF" parent="1" vertex="1">
          <mxGeometry x="360.50000000000136" y="680.500000000002" width="80.00000000000028" height="20" as="geometry" />
        </mxCell>
        <mxCell id="tZKbt4fKLGaMZ1IonJi8-664" value="25.03.10" style="strokeColor=#DEEDFF;fillColor=#CCE5FF" parent="1" vertex="1">
          <mxGeometry x="440.5000000000016" y="680.500000000002" width="80.00000000000028" height="20" as="geometry" />
        </mxCell>
        <mxCell id="tZKbt4fKLGaMZ1IonJi8-665" value="25.03.24" style="strokeColor=#DEEDFF;fillColor=#CCE5FF" parent="1" vertex="1">
          <mxGeometry x="520.5000000000011" y="680.5000000000023" width="80.00000000000028" height="20" as="geometry" />
        </mxCell>
        <mxCell id="tZKbt4fKLGaMZ1IonJi8-666" value="" style="shape=mxgraph.flowchart.process;fillColor=#AE4132;strokeColor=#000000;strokeWidth=2;opacity=100" parent="1" vertex="1">
          <mxGeometry x="1160.75" y="680" width="279.75" height="20" as="geometry" />
        </mxCell>
      </root>
    </mxGraphModel>
  </diagram>
</mxfile>
